<?xml version="1.0" encoding="utf-8"?>
<!-- Generator: Adobe Illustrator 24.1.1, SVG Export Plug-In . SVG Version: 6.00 Build 0)  -->
<svg version="1.1" id="Layer_1" xmlns="http://www.w3.org/2000/svg" xmlns:xlink="http://www.w3.org/1999/xlink" x="0px" y="0px"
	 viewBox="0 0 1010.1 610.1" style="enable-background:new 0 0 1010.1 610.1;" xml:space="preserve">
<style type="text/css">
	.st0{fill:none;stroke:url(#SVGID_1_);stroke-width:70;stroke-linecap:round;stroke-linejoin:round;}
	.st1{fill:none;stroke:url(#SVGID_2_);stroke-width:70;stroke-linecap:round;stroke-linejoin:round;}
	.st2{enable-background:new    ;}
	.st3{fill:#4A017D;}
	.st4{fill:#7B047B;}
	.st5{fill:#3C1657;}
	.st6{fill:#FDFDFE;}
</style>
<linearGradient id="SVGID_1_" gradientUnits="userSpaceOnUse" x1="-351.1485" y1="506.5852" x2="154.6515" y2="506.5852" gradientTransform="matrix(6.123234e-17 -1 1 6.123234e-17 -204.5852 154.6515)">
	<stop  offset="0" style="stop-color:#0D0733"/>
	<stop  offset="6.868000e-02" style="stop-color:#190641"/>
	<stop  offset="0.2481" style="stop-color:#340362"/>
	<stop  offset="0.3983" style="stop-color:#440276"/>
	<stop  offset="0.5" style="stop-color:#4A017D"/>
	<stop  offset="1" style="stop-color:#82027E"/>
</linearGradient>
<path class="st0" d="M228.7,470.8l-144.3-0.1L84.2,35h435.3c0.1,145.1,0.2,290.1,0.3,435.2l-79.7,0.1"/>
<linearGradient id="SVGID_2_" gradientUnits="userSpaceOnUse" x1="298.7" y1="910.65" x2="692" y2="910.65" gradientTransform="matrix(1 0 0 1 0 -388)">
	<stop  offset="0" style="stop-color:#0B0146"/>
	<stop  offset="1.799000e-02" style="stop-color:#0E0149"/>
	<stop  offset="0.2126" style="stop-color:#2F0165"/>
	<stop  offset="0.3754" style="stop-color:#430177"/>
	<stop  offset="0.4856" style="stop-color:#4A017D"/>
	<stop  offset="1" style="stop-color:#82027E"/>
</linearGradient>
<polyline class="st1" points="333.7,470.2 333.7,575.1 657,575.1 "/>
<g class="st2">
	<path class="st3" d="M615,449.7c3.8-4.2,7.3-7.3,10.6-9.2c3.2-1.9,7.3-3.2,12.3-4l14.8-1.7V322.6h-15.4l-13.1-4.1
		c-3.8-2.7-6.8-5.8-9.1-9.3c-2.3-4.7-3.4-9.7-3.4-15.1c0-5.8,1.7-12,5.1-18.6c3.4-6.6,8.6-9.9,15.4-9.9h56.5c3.4,0,6.7,1.7,9.7,5.1
		l8,7.4h1.1l20.5-8c4.2-1.9,7.5-3.1,10-3.7c2.5-0.6,6.6-0.9,12.3-0.9h193.5c4.6,0.8,9.1,3.2,13.7,7.2s6.8,8,6.8,11.8v60.6
		c-0.8,4.6-2,8-3.7,10.1c-1.7,2.1-3.9,3.8-6.6,4.9l-9.1,3.5h-8.6c-6.5,0-11.5-1.3-15.1-4c-3.6-2.7-6.3-5.9-8-9.7
		c-1.7-3.8-3-8.2-3.7-13.1l-1.7-14.3H758.2c-3.8,0-7,0.4-9.7,1.2c-2.7,0.8-5.5,1.9-8.6,3.4c-6.1,3.4-11.2,7.5-15.4,12.3
		c-4.2,4.8-7.5,10.1-10,16c-2.5,5.9-3.7,11.7-3.7,17.5v61.9l14.3,1.1c6.1,1.2,10.5,2.7,13.1,4.6c4.2,1.9,7.5,4.8,10,8.6
		c2.5,3.8,3.7,8.6,3.7,14.3l-1.1,8.6l-3.4,9.2l-5.7,7.4c-1.9,1.9-4.8,2.9-8.6,2.9H630.4c-4.2-0.8-7.3-1.9-9.4-3.4
		c-2.1-1.5-3.7-3.6-4.9-6.3l-3.4-9.2l-1.1-8.6C611.5,457.9,612.7,453.2,615,449.7z"/>
</g>
<g>
	<path class="st4" d="M455.6,150.6c0,8.4,0,16.9,0,25.3c-0.1,12.6-8.8,23.2-20.9,25.4c-1.8,0.3-3.6,0.5-5.5,0.5
		c-16.6,0-33.2,0-49.7,0c-15.2,0-26.4-11.2-26.4-26.3c0-16.7,0-33.4,0-50.1c0-11.5,6.9-21.2,17.6-24.8c2.7-0.9,5.5-1.3,8.3-1.3
		c16.8,0,33.6,0,50.4,0c14.8,0,26.1,11.3,26.1,26.1C455.6,133.7,455.6,142.2,455.6,150.6z M404.4,187.1c6,0,12,0,18,0
		c10.6,0,18.6-8,18.6-18.6c0-12,0-24,0-35.9c0-10.6-8-18.6-18.6-18.6c-12,0-24,0-35.9,0c-10.7,0-18.7,8-18.7,18.7
		c0,11.9,0,23.8,0,35.8c0,10.8,7.9,18.7,18.7,18.7C392.4,187.1,398.4,187.1,404.4,187.1z"/>
	<path class="st4" d="M199.4,99.2c8.4,0,16.7,0,25.1,0c14.6,0,26,11.1,26.1,25.6c0.1,17.1,0.1,34.3,0,51.4
		c-0.1,14.3-11.4,25.4-25.9,25.5c-16.9,0.1-33.8,0.1-50.7,0c-14.7-0.1-25.8-11.4-25.8-26c0-16.7,0-33.5,0-50.2
		c0-15,11.3-26.2,26.3-26.2C182.7,99.2,191.1,99.2,199.4,99.2z M199.4,113.9c-6,0-12,0-18,0c-10.7,0-18.6,8-18.7,18.7
		c0,11.9,0,23.7,0,35.6c0,11,7.9,18.9,18.9,18.9c11.8,0,23.6,0,35.4,0c11,0,18.9-7.9,18.9-18.8c0-11.9,0-23.7,0-35.6
		c0-10.8-8-18.7-18.8-18.8C211.2,113.9,205.3,113.9,199.4,113.9z"/>
	<path class="st5" d="M199.4,304.2c8.5,0,17.1,0,25.6,0c11.8,0,22,8.1,24.8,19.5c0.6,2.4,0.7,4.9,0.7,7.3c0.1,16.6,0.1,33.2,0,49.7
		c0,12.8-8.8,23.4-21.1,25.5c-1.8,0.3-3.6,0.5-5.5,0.5c-16.5,0-32.9,0-49.4,0c-5.6,0-10.8-1.3-15.4-4.5
		c-7.3-5.2-11.1-12.3-11.1-21.2c-0.1-17-0.1-34,0-51.1c0.1-14.6,11.5-25.7,26.1-25.7C182.6,304.2,191,304.2,199.4,304.2z
		 M199.4,318.9c-6.1,0-12.2,0-18.3,0c-10.4,0.1-18.4,8.1-18.4,18.5c0,12,0,24.1,0,36.1c0,10.7,7.9,18.6,18.6,18.6c12,0,24,0,35.9,0
		c10.8,0,18.7-7.9,18.7-18.7c0-11.9,0-23.8,0-35.8c0-10.8-8-18.7-18.7-18.8C211.3,318.9,205.4,318.9,199.4,318.9z"/>
	<path class="st4" d="M337.7,106.6c0,3.6-3.1,6.6-6.6,6.5c-3.6,0-6.6-3.1-6.5-6.6c0-3.6,3.1-6.6,6.6-6.5
		C334.8,100,337.7,103,337.7,106.6z"/>
	<path class="st4" d="M308.4,121.1c0,3.5-2.9,6.6-6.5,6.6c-3.5,0-6.6-2.9-6.6-6.5c0-3.5,2.9-6.6,6.5-6.6
		C305.3,114.6,308.4,117.6,308.4,121.1z"/>
	<path class="st4" d="M316.5,127.8c-3.6,0-6.6-3-6.6-6.6c0-3.6,3-6.6,6.6-6.6c3.6,0,6.6,3,6.6,6.6
		C323.1,124.8,320,127.8,316.5,127.8z"/>
	<path class="st4" d="M279.1,135.8c0,3.6-3,6.6-6.5,6.6c-3.6,0-6.6-3-6.6-6.5c0-3.6,3-6.6,6.5-6.6
		C276.1,129.2,279.1,132.2,279.1,135.8z"/>
	<path class="st4" d="M293.8,135.8c0,3.6-3,6.6-6.5,6.6c-3.6,0-6.6-3-6.6-6.5c0-3.6,3-6.6,6.5-6.6
		C290.7,129.2,293.8,132.2,293.8,135.8z"/>
	<path class="st4" d="M316.5,129.3c3.6,0,6.6,3,6.6,6.6c0,3.6-3,6.6-6.6,6.6c-3.6,0-6.6-3-6.6-6.6
		C309.9,132.3,312.9,129.3,316.5,129.3z"/>
	<path class="st4" d="M279.1,150.5c0,3.6-3.1,6.6-6.6,6.5c-3.6,0-6.6-3.1-6.5-6.6c0-3.6,3.1-6.6,6.6-6.5
		C276.2,143.9,279.2,147,279.1,150.5z"/>
	<path class="st4" d="M293.8,150.5c0,3.6-3.1,6.6-6.6,6.5c-3.6,0-6.6-3.1-6.5-6.6c0-3.6,3.1-6.6,6.6-6.5
		C290.8,143.9,293.8,147,293.8,150.5z"/>
	<path class="st4" d="M331.1,157.1c-3.6,0-6.6-3.1-6.5-6.6c0-3.6,3.1-6.6,6.6-6.5c3.6,0,6.6,3.1,6.5,6.6
		C337.7,154.1,334.7,157.1,331.1,157.1z"/>
	<path class="st4" d="M279.1,165c0.1,3.5-2.9,6.6-6.5,6.6c-3.5,0.1-6.6-2.9-6.6-6.5c-0.1-3.5,2.9-6.6,6.5-6.6
		C276,158.5,279.1,161.5,279.1,165z"/>
	<path class="st4" d="M323.1,165.1c0,3.6-3,6.6-6.6,6.6c-3.6,0-6.6-3-6.6-6.6c0-3.6,3-6.6,6.6-6.6
		C320.1,158.5,323.1,161.5,323.1,165.1z"/>
	<path class="st4" d="M287.1,186.3c-3.6,0-6.6-3.1-6.5-6.6c0-3.6,3.1-6.6,6.6-6.5c3.6,0,6.6,3.1,6.5,6.6
		C293.7,183.4,290.7,186.4,287.1,186.3z"/>
	<path class="st4" d="M301.8,186.3c-3.6-0.1-6.6-3.1-6.5-6.6c0.1-3.6,3.1-6.6,6.6-6.5c3.6,0.1,6.6,3.1,6.5,6.6
		C308.4,183.4,305.3,186.4,301.8,186.3z"/>
	<path class="st4" d="M323.1,179.9c-0.1,3.6-3.2,6.5-6.7,6.4c-3.6-0.1-6.5-3.2-6.4-6.7c0.1-3.6,3.2-6.5,6.7-6.4
		C320.2,173.3,323.2,176.4,323.1,179.9z"/>
	<path class="st4" d="M337.7,179.8c0,3.6-3,6.6-6.6,6.6c-3.6,0-6.6-3-6.6-6.6c0-3.6,3-6.6,6.6-6.6
		C334.7,173.2,337.7,176.2,337.7,179.8z"/>
	<path class="st4" d="M272.6,187.8c3.6,0,6.6,3,6.6,6.6c0,3.6-3,6.6-6.6,6.6c-3.6,0-6.6-3-6.6-6.6C266,190.9,269,187.8,272.6,187.8z
		"/>
	<path class="st4" d="M308.4,194.4c0,3.6-3,6.6-6.5,6.6c-3.6,0-6.6-3-6.6-6.5c0-3.6,3-6.6,6.5-6.6
		C305.4,187.8,308.4,190.8,308.4,194.4z"/>
	<path class="st4" d="M331.2,187.8c3.6,0,6.6,3.1,6.5,6.6c0,3.6-3.1,6.6-6.6,6.5c-3.6,0-6.6-3.1-6.5-6.6
		C324.6,190.8,327.6,187.8,331.2,187.8z"/>
	<path class="st4" d="M316.5,202.5c3.6,0,6.6,3.1,6.5,6.6c0,3.6-3.1,6.6-6.6,6.5c-3.6,0-6.6-3.1-6.5-6.6
		C310,205.4,313,202.4,316.5,202.5z"/>
	<path class="st4" d="M337.7,209c0,3.6-3,6.6-6.5,6.6c-3.6,0-6.6-3-6.6-6.5c0-3.6,3-6.6,6.5-6.6C334.7,202.4,337.7,205.4,337.7,209z
		"/>
	<path class="st4" d="M162,223.7c0,3.6-3.1,6.6-6.6,6.5c-3.6,0-6.6-3.1-6.5-6.6c0-3.6,3.1-6.6,6.6-6.5
		C159,217.2,162,220.2,162,223.7z"/>
	<path class="st4" d="M170.1,217.1c3.6,0,6.6,3,6.6,6.6c0,3.6-3,6.6-6.6,6.6c-3.6,0-6.6-3-6.6-6.6
		C163.5,220.1,166.5,217.1,170.1,217.1z"/>
	<path class="st4" d="M184.8,230.3c-3.6,0.1-6.6-2.9-6.6-6.5c-0.1-3.6,2.9-6.6,6.5-6.6c3.6-0.1,6.6,2.9,6.7,6.5
		C191.3,227.2,188.4,230.2,184.8,230.3z"/>
	<path class="st4" d="M199.4,230.3c-3.6,0.1-6.6-2.9-6.6-6.5c-0.1-3.6,2.9-6.6,6.5-6.6c3.6-0.1,6.6,2.9,6.7,6.5
		C206,227.2,203,230.2,199.4,230.3z"/>
	<path class="st4" d="M243.3,230.3c-3.6,0-6.6-3-6.6-6.6c0-3.6,3-6.6,6.6-6.6c3.6,0,6.6,3,6.6,6.6
		C249.8,227.3,246.8,230.3,243.3,230.3z"/>
	<path class="st4" d="M279.1,223.6c0,3.6-2.9,6.6-6.5,6.6c-3.6,0-6.6-2.9-6.6-6.5c0-3.6,2.9-6.6,6.5-6.6
		C276.1,217.1,279.1,220,279.1,223.6z"/>
	<path class="st4" d="M293.8,223.7c0,3.6-3,6.6-6.6,6.6c-3.6,0-6.6-3-6.6-6.6c0-3.6,3-6.6,6.6-6.6
		C290.8,217.1,293.8,220.1,293.8,223.7z"/>
	<path class="st4" d="M308.4,223.7c0,3.6-3,6.6-6.6,6.6c-3.6,0-6.6-3-6.6-6.6c0-3.6,3-6.6,6.6-6.6
		C305.4,217.1,308.4,220.1,308.4,223.7z"/>
	<path class="st4" d="M323.1,223.7c0,3.6-3,6.6-6.6,6.6c-3.6,0-6.6-3-6.6-6.6c0-3.6,3-6.6,6.6-6.6
		C320,217.1,323.1,220.1,323.1,223.7z"/>
	<path class="st4" d="M337.7,223.7c0,3.6-3,6.6-6.5,6.6c-3.6,0-6.6-3-6.6-6.5c0-3.6,3-6.6,6.5-6.6
		C334.7,217.1,337.7,220.1,337.7,223.7z"/>
	<path class="st4" d="M352.4,223.7c0,3.6-3.1,6.6-6.6,6.5c-3.6,0-6.6-3.1-6.5-6.6c0-3.6,3.1-6.6,6.6-6.5
		C349.4,217.1,352.4,220.2,352.4,223.7z"/>
	<path class="st4" d="M389.7,217.1c3.6,0,6.6,3,6.6,6.5c0,3.6-3,6.6-6.5,6.6c-3.6,0-6.6-3-6.6-6.5
		C383.1,220.2,386.1,217.1,389.7,217.1z"/>
	<path class="st4" d="M404.4,230.3c-3.6,0.1-6.6-2.9-6.6-6.5c-0.1-3.6,2.9-6.6,6.5-6.6c3.6-0.1,6.6,2.9,6.7,6.5
		C411,227.2,408,230.2,404.4,230.3z"/>
	<path class="st4" d="M419,230.3c-3.6,0-6.6-3-6.5-6.6c0-3.6,3-6.6,6.6-6.5c3.6,0,6.6,3,6.5,6.6C425.6,227.3,422.5,230.3,419,230.3z
		"/>
	<path class="st4" d="M448.2,230.3c-3.6-0.1-6.6-3.1-6.5-6.6c0.1-3.6,3.1-6.6,6.6-6.5c3.6,0.1,6.6,3.1,6.5,6.6
		C454.8,227.4,451.8,230.3,448.2,230.3z"/>
	<path class="st4" d="M176.6,238.3c0.1,3.6-2.9,6.6-6.5,6.6c-3.6,0.1-6.6-2.9-6.6-6.5c-0.1-3.6,2.9-6.6,6.5-6.6
		C173.5,231.7,176.6,234.7,176.6,238.3z"/>
	<path class="st4" d="M235.2,238.4c-0.1,3.6-3.1,6.6-6.7,6.5c-3.6-0.1-6.6-3.1-6.5-6.7c0.1-3.6,3.1-6.6,6.7-6.5
		C232.3,231.8,235.3,234.9,235.2,238.4z"/>
	<path class="st4" d="M279.1,238.4c0,3.6-3.1,6.6-6.6,6.5c-3.6,0-6.6-3.1-6.5-6.6c0-3.6,3.1-6.6,6.6-6.5
		C276.2,231.8,279.2,234.8,279.1,238.4z"/>
	<path class="st4" d="M293.8,238.3c0,3.6-3,6.6-6.5,6.6c-3.6,0-6.6-3-6.6-6.5c0-3.6,3-6.6,6.5-6.6
		C290.7,231.7,293.8,234.7,293.8,238.3z"/>
	<path class="st4" d="M308.4,238.4c0,3.6-3,6.6-6.6,6.5c-3.6,0-6.6-3-6.5-6.6c0-3.6,3-6.6,6.6-6.5
		C305.5,231.8,308.4,234.8,308.4,238.4z"/>
	<path class="st4" d="M316.5,244.9c-3.6,0-6.6-3-6.6-6.6c0-3.6,3-6.6,6.6-6.6c3.6,0,6.6,3,6.6,6.6
		C323.1,241.9,320.1,244.9,316.5,244.9z"/>
	<path class="st4" d="M331.1,244.9c-3.6,0-6.6-3.1-6.5-6.6c0-3.6,3.1-6.6,6.6-6.5c3.6,0,6.6,3.1,6.5,6.6
		C337.7,242,334.6,245,331.1,244.9z"/>
	<path class="st4" d="M345.9,231.8c3.6,0.1,6.6,3.1,6.5,6.6c-0.1,3.6-3.1,6.6-6.7,6.5c-3.6-0.1-6.6-3.1-6.5-6.7
		C339.3,234.7,342.3,231.7,345.9,231.8z"/>
	<path class="st4" d="M360.5,244.9c-3.6,0-6.6-3-6.6-6.5c0-3.6,3-6.6,6.5-6.6c3.6,0,6.6,3,6.6,6.5C367,241.9,364,244.9,360.5,244.9z
		"/>
	<path class="st4" d="M375.1,231.8c3.6,0.1,6.6,3.1,6.5,6.6c-0.1,3.6-3.1,6.6-6.7,6.5c-3.6-0.1-6.6-3.1-6.5-6.7
		C368.5,234.7,371.6,231.7,375.1,231.8z"/>
	<path class="st4" d="M448.4,231.8c3.6,0,6.6,3.1,6.5,6.6c0,3.6-3.1,6.6-6.6,6.5c-3.6,0-6.6-3.1-6.5-6.6
		C441.8,234.7,444.8,231.7,448.4,231.8z"/>
	<path class="st4" d="M155.4,246.4c3.6,0,6.6,2.9,6.6,6.5c0,3.6-2.9,6.6-6.5,6.6c-3.6,0-6.6-2.9-6.6-6.5
		C148.8,249.5,151.8,246.5,155.4,246.4z"/>
	<path class="st4" d="M176.6,252.9c0,3.6-2.9,6.6-6.5,6.6c-3.6,0-6.6-2.9-6.6-6.5c0-3.6,2.9-6.6,6.5-6.6
		C173.6,246.4,176.6,249.3,176.6,252.9z"/>
	<path class="st4" d="M220.6,252.9c0.1,3.6-2.9,6.6-6.5,6.6c-3.6,0.1-6.6-2.9-6.6-6.5c-0.1-3.6,2.9-6.6,6.5-6.6
		C217.5,246.4,220.5,249.3,220.6,252.9z"/>
	<path class="st4" d="M249.9,253c0,3.6-3,6.6-6.6,6.5c-3.6,0-6.6-3-6.5-6.6c0-3.6,3-6.6,6.6-6.5C246.9,246.4,249.9,249.4,249.9,253z
		"/>
	<path class="st4" d="M258,259.6c-3.6,0.1-6.6-2.9-6.6-6.5c-0.1-3.6,2.9-6.6,6.5-6.6c3.6-0.1,6.6,2.9,6.6,6.5
		C264.5,256.5,261.6,259.5,258,259.6z"/>
	<path class="st4" d="M287.1,259.6c-3.6-0.1-6.5-3.2-6.4-6.7c0.1-3.6,3.2-6.5,6.7-6.4c3.6,0.1,6.5,3.2,6.4,6.7
		C293.7,256.7,290.6,259.7,287.1,259.6z"/>
	<path class="st4" d="M323.1,252.9c0.1,3.6-2.9,6.6-6.5,6.6c-3.6,0.1-6.6-2.9-6.7-6.5c-0.1-3.6,2.9-6.6,6.5-6.6
		C320,246.4,323,249.3,323.1,252.9z"/>
	<path class="st4" d="M410.9,253c0,3.6-3,6.6-6.6,6.6c-3.6,0-6.6-3-6.6-6.6c0-3.6,3-6.6,6.6-6.6C407.9,246.4,410.9,249.4,410.9,253z
		"/>
	<path class="st4" d="M440.2,253c0,3.6-3,6.6-6.6,6.6c-3.6,0-6.6-3-6.6-6.6c0-3.6,3-6.6,6.6-6.6C437.2,246.4,440.2,249.4,440.2,253z
		"/>
	<path class="st4" d="M454.9,253c0,3.6-3,6.6-6.6,6.6c-3.6,0-6.6-3-6.6-6.6c0-3.6,3-6.6,6.6-6.6C451.8,246.4,454.9,249.4,454.9,253z
		"/>
	<path class="st4" d="M155.5,274.2c-3.6,0.1-6.6-2.9-6.7-6.5c-0.1-3.6,2.9-6.6,6.5-6.6c3.6-0.1,6.6,2.9,6.7,6.5
		C162,271.1,159.1,274.1,155.5,274.2z"/>
	<path class="st4" d="M176.6,267.6c0,3.6-3,6.6-6.5,6.6c-3.6,0-6.6-3-6.6-6.5c0-3.6,3-6.6,6.5-6.6C173.6,261,176.6,264,176.6,267.6z
		"/>
	<path class="st4" d="M235.2,267.7c0,3.6-3,6.6-6.6,6.5c-3.6,0-6.6-3-6.5-6.6c0-3.6,3-6.6,6.6-6.5
		C232.2,261.1,235.2,264.1,235.2,267.7z"/>
	<path class="st4" d="M272.6,274.2c-3.6,0-6.6-3-6.6-6.6c0-3.6,3-6.6,6.6-6.6c3.6,0,6.6,3,6.6,6.6
		C279.1,271.2,276.1,274.2,272.6,274.2z"/>
	<path class="st4" d="M301.9,261.1c3.6,0,6.6,3,6.6,6.6c0,3.6-3,6.6-6.6,6.6c-3.6,0-6.6-3-6.6-6.6C295.3,264,298.3,261,301.9,261.1z
		"/>
	<path class="st4" d="M316.6,274.2c-3.6,0.1-6.6-2.9-6.6-6.5c-0.1-3.6,2.9-6.6,6.5-6.6c3.6-0.1,6.6,2.9,6.6,6.5
		C323.1,271.1,320.2,274.2,316.6,274.2z"/>
	<path class="st4" d="M367,267.7c0,3.6-3.1,6.6-6.6,6.5c-3.6,0-6.6-3.1-6.5-6.6c0-3.6,3.1-6.6,6.6-6.5
		C364.1,261.1,367,264.1,367,267.7z"/>
	<path class="st4" d="M410.9,267.6c0.1,3.6-2.9,6.6-6.5,6.6c-3.6,0.1-6.6-2.9-6.6-6.5c-0.1-3.6,2.9-6.6,6.5-6.6
		C407.8,261,410.9,264,410.9,267.6z"/>
	<path class="st4" d="M448.3,274.2c-3.6,0-6.6-3-6.6-6.6c0-3.6,3-6.6,6.6-6.6c3.6,0,6.6,3,6.6,6.6
		C454.9,271.2,451.8,274.2,448.3,274.2z"/>
	<path class="st4" d="M191.3,282.3c-0.1,3.6-3.1,6.6-6.7,6.5c-3.6-0.1-6.6-3.1-6.5-6.7c0.1-3.6,3.1-6.6,6.7-6.5
		C188.4,275.7,191.3,278.8,191.3,282.3z"/>
	<path class="st4" d="M199.4,275.7c3.6,0,6.6,3,6.5,6.6c0,3.6-3,6.6-6.6,6.5c-3.6,0-6.6-3-6.5-6.6
		C192.8,278.7,195.8,275.7,199.4,275.7z"/>
	<path class="st4" d="M235.2,282.3c0,3.6-3.1,6.6-6.6,6.5c-3.6,0-6.6-3.1-6.5-6.6c0-3.6,3.1-6.6,6.6-6.5
		C232.3,275.7,235.3,278.8,235.2,282.3z"/>
	<path class="st4" d="M249.9,282.2c0,3.6-2.9,6.6-6.5,6.6c-3.6,0-6.6-2.9-6.6-6.5c0-3.6,2.9-6.6,6.5-6.6
		C246.8,275.7,249.8,278.6,249.9,282.2z"/>
	<path class="st4" d="M272.6,275.7c3.6,0.1,6.6,3.1,6.5,6.6c-0.1,3.6-3.1,6.6-6.6,6.5c-3.6-0.1-6.6-3.1-6.5-6.6
		C266,278.6,269.1,275.6,272.6,275.7z"/>
	<path class="st4" d="M287.3,288.8c-3.6,0.1-6.6-2.9-6.7-6.5c-0.1-3.6,2.9-6.6,6.5-6.6c3.6-0.1,6.6,2.9,6.7,6.5
		C293.8,285.8,290.9,288.8,287.3,288.8z"/>
	<path class="st4" d="M301.8,288.8c-3.6,0-6.6-3.1-6.5-6.6c0-3.6,3.1-6.6,6.6-6.5c3.6,0,6.6,3.1,6.5,6.6
		C308.4,285.9,305.4,288.9,301.8,288.8z"/>
	<path class="st4" d="M337.7,282.4c-0.1,3.6-3.2,6.5-6.7,6.4c-3.6-0.1-6.5-3.2-6.4-6.7c0.1-3.6,3.2-6.5,6.7-6.4
		C334.9,275.8,337.8,278.9,337.7,282.4z"/>
	<path class="st4" d="M381.6,282.3c-0.1,3.6-3.1,6.6-6.6,6.5c-3.6-0.1-6.6-3.1-6.5-6.6c0.1-3.6,3.1-6.6,6.6-6.5
		C378.7,275.7,381.7,278.8,381.6,282.3z"/>
	<path class="st5" d="M279.1,296.9c0,3.6-3,6.6-6.6,6.5c-3.6,0-6.6-3-6.5-6.6c0-3.6,3-6.6,6.6-6.5
		C276.2,290.4,279.1,293.4,279.1,296.9z"/>
	<path class="st5" d="M301.9,290.4c3.6,0,6.6,3,6.5,6.6c0,3.6-3,6.6-6.6,6.5c-3.6,0-6.6-3-6.5-6.6
		C295.3,293.3,298.3,290.4,301.9,290.4z"/>
	<path class="st5" d="M316.5,290.4c3.6,0,6.6,3,6.6,6.5c0,3.6-3,6.6-6.5,6.6c-3.6,0-6.6-3-6.6-6.5
		C309.9,293.4,312.9,290.4,316.5,290.4z"/>
	<path class="st5" d="M367,296.9c0,3.6-3,6.6-6.5,6.6c-3.6,0-6.6-3-6.6-6.5c0-3.6,3-6.6,6.5-6.6C364,290.3,367,293.3,367,296.9z"/>
	<path class="st5" d="M375,290.4c3.6,0,6.6,2.9,6.6,6.5c0,3.6-2.9,6.6-6.5,6.6c-3.6,0-6.6-2.9-6.6-6.5
		C368.5,293.4,371.5,290.4,375,290.4z"/>
	<path class="st5" d="M404.4,303.5c-3.6,0.1-6.6-2.9-6.6-6.5c-0.1-3.6,2.9-6.6,6.5-6.6c3.6-0.1,6.6,2.9,6.6,6.5
		C411,300.4,408,303.4,404.4,303.5z"/>
	<path class="st5" d="M440.2,296.9c0,3.6-3,6.6-6.6,6.5c-3.6,0-6.6-3-6.5-6.6c0-3.6,3-6.6,6.6-6.5
		C437.2,290.4,440.2,293.4,440.2,296.9z"/>
	<path class="st5" d="M454.8,297.2c-0.2,3.6-3.3,6.5-6.8,6.3c-3.6-0.2-6.5-3.3-6.3-6.8c0.2-3.6,3.3-6.5,6.8-6.3
		C452.2,290.5,455,293.6,454.8,297.2z"/>
	<path class="st4" d="M279.1,106.5c0,3.6-3,6.6-6.6,6.6c-3.6,0-6.6-3-6.6-6.6c0-3.6,3-6.6,6.6-6.6C276.1,100,279.1,103,279.1,106.5z
		"/>
	<path class="st5" d="M293.8,311.6c0,3.6-3.1,6.5-6.6,6.5c-3.6,0-6.5-3.1-6.5-6.6c0-3.6,3.1-6.5,6.6-6.5
		C290.9,305,293.8,308.1,293.8,311.6z"/>
	<path class="st5" d="M323.1,311.5c0,3.6-2.9,6.6-6.5,6.6c-3.6,0-6.6-2.9-6.6-6.5c0-3.6,2.9-6.6,6.5-6.6
		C320,305,323,307.9,323.1,311.5z"/>
	<path class="st5" d="M337.7,311.6c0,3.6-3.1,6.5-6.6,6.5c-3.6,0-6.5-3.1-6.5-6.6c0-3.6,3.1-6.5,6.6-6.5
		C334.8,305,337.7,308.1,337.7,311.6z"/>
	<path class="st5" d="M381.6,311.5c0,3.6-2.9,6.6-6.5,6.6c-3.6,0-6.6-2.9-6.6-6.5c0-3.6,2.9-6.6,6.5-6.6
		C378.6,305,381.6,307.9,381.6,311.5z"/>
	<path class="st5" d="M389.6,318.1c-3.6-0.1-6.5-3.1-6.5-6.6c0.1-3.6,3.1-6.5,6.6-6.5c3.6,0.1,6.5,3.1,6.5,6.6
		C396.2,315.2,393.2,318.2,389.6,318.1z"/>
	<path class="st5" d="M397.8,311.5c0-3.6,3-6.5,6.6-6.5c3.6,0,6.6,3,6.5,6.6c0,3.6-3,6.6-6.6,6.5
		C400.7,318.1,397.8,315.1,397.8,311.5z"/>
	<path class="st4" d="M308.4,106.5c0.1,3.5-2.9,6.6-6.5,6.7c-3.5,0.1-6.6-2.9-6.7-6.5c-0.1-3.5,2.9-6.6,6.5-6.7
		C305.3,99.9,308.4,102.9,308.4,106.5z"/>
	<path class="st5" d="M293.8,326.2c0,3.6-3,6.6-6.5,6.6c-3.6,0-6.6-3-6.6-6.5c0-3.6,3-6.6,6.5-6.6
		C290.8,319.6,293.7,322.6,293.8,326.2z"/>
	<path class="st5" d="M308.4,326.2c0,3.6-3,6.6-6.5,6.6c-3.6,0-6.6-3-6.6-6.5c0-3.6,3-6.6,6.5-6.6
		C305.4,319.6,308.4,322.6,308.4,326.2z"/>
	<path class="st5" d="M410.9,326.2c0,3.6-3,6.6-6.5,6.6c-3.6,0-6.6-3-6.6-6.5c0-3.6,3-6.6,6.5-6.6
		C407.9,319.6,410.9,322.6,410.9,326.2z"/>
	<path class="st5" d="M425.6,326.2c0,3.6-3,6.6-6.5,6.6c-3.6,0-6.6-3-6.6-6.5c0-3.6,3-6.6,6.5-6.6
		C422.6,319.6,425.5,322.6,425.6,326.2z"/>
	<path class="st5" d="M440.2,326.2c0,3.6-2.9,6.6-6.5,6.6c-3.6,0-6.6-2.9-6.6-6.5c0-3.6,2.9-6.6,6.5-6.6
		C437.2,319.6,440.2,322.6,440.2,326.2z"/>
	<path class="st5" d="M454.8,326.2c0,3.6-3,6.6-6.5,6.6c-3.6,0-6.6-3-6.6-6.5c0-3.6,3-6.6,6.5-6.6
		C451.8,319.6,454.8,322.6,454.8,326.2z"/>
	<path class="st4" d="M316.6,100c3.6,0,6.6,3.1,6.5,6.6c0,3.6-3.1,6.6-6.6,6.5c-3.6,0-6.6-3.1-6.5-6.6C310,102.9,313,99.9,316.6,100
		z"/>
	<path class="st5" d="M337.7,340.9c0,3.6-3,6.5-6.6,6.5c-3.6,0-6.5-3-6.5-6.6c0-3.6,3-6.5,6.6-6.5
		C334.8,334.3,337.7,337.3,337.7,340.9z"/>
	<path class="st5" d="M345.8,334.3c3.6,0,6.6,3,6.5,6.6c0,3.6-3,6.6-6.6,6.5c-3.6,0-6.6-3-6.5-6.6
		C339.2,337.2,342.2,334.3,345.8,334.3z"/>
	<path class="st5" d="M360.4,334.3c3.6,0,6.6,2.9,6.6,6.5c0,3.6-2.9,6.6-6.5,6.6c-3.6,0-6.6-2.9-6.6-6.5
		C353.8,337.3,356.8,334.3,360.4,334.3z"/>
	<path class="st5" d="M419,347.4c-3.6,0-6.6-2.9-6.6-6.5c0-3.6,2.9-6.6,6.5-6.6c3.6,0,6.6,2.9,6.6,6.5
		C425.6,344.4,422.6,347.4,419,347.4z"/>
	<path class="st5" d="M427.1,340.7c0.1-3.6,3.1-6.5,6.7-6.4c3.6,0.1,6.5,3.1,6.4,6.7c-0.1,3.6-3.1,6.5-6.7,6.4
		C429.9,347.3,427,344.3,427.1,340.7z"/>
	<path class="st5" d="M454.8,340.8c0,3.6-3,6.6-6.5,6.6c-3.6,0-6.6-3-6.6-6.5c0-3.6,3-6.6,6.5-6.6
		C451.9,334.3,454.8,337.3,454.8,340.8z"/>
	<path class="st5" d="M279.1,355.4c0.1,3.6-2.9,6.6-6.5,6.6c-3.6,0.1-6.6-2.9-6.6-6.5c-0.1-3.6,2.9-6.6,6.5-6.6
		C276.1,348.9,279.1,351.8,279.1,355.4z"/>
	<path class="st5" d="M323.1,355.4c0,3.6-2.9,6.6-6.5,6.6c-3.6,0-6.6-2.9-6.6-6.5c0-3.6,2.9-6.6,6.5-6.6
		C320,348.9,323,351.8,323.1,355.4z"/>
	<path class="st5" d="M367,355.4c0,3.6-2.9,6.6-6.5,6.6c-3.6,0-6.6-2.9-6.6-6.5c0-3.6,2.9-6.6,6.5-6.6
		C363.9,348.9,366.9,351.8,367,355.4z"/>
	<path class="st5" d="M375.1,362c-3.6,0.1-6.6-2.9-6.6-6.5c-0.1-3.6,2.9-6.6,6.5-6.6c3.6-0.1,6.6,2.9,6.6,6.5
		C381.7,359,378.7,362,375.1,362z"/>
	<path class="st5" d="M389.7,348.9c3.6,0,6.6,2.9,6.6,6.5c0,3.6-2.9,6.6-6.5,6.6c-3.6,0-6.6-2.9-6.6-6.5
		C383.1,351.9,386.1,349,389.7,348.9z"/>
	<path class="st5" d="M440.2,355.5c0,3.6-3,6.5-6.6,6.5c-3.6,0-6.5-3-6.5-6.6c0-3.6,3-6.5,6.6-6.5C437.3,349,440.2,352,440.2,355.5z
		"/>
	<path class="st5" d="M279.1,370.1c0,3.6-3,6.6-6.6,6.5c-3.6,0-6.6-3-6.6-6.6c0-3.6,3-6.6,6.6-6.5
		C276.2,363.6,279.1,366.6,279.1,370.1z"/>
	<path class="st5" d="M301.9,376.7c-3.6,0-6.6-3-6.6-6.5c0-3.6,3-6.6,6.5-6.6c3.6,0,6.6,3,6.6,6.5
		C308.4,373.7,305.5,376.7,301.9,376.7z"/>
	<path class="st5" d="M331.1,363.6c3.6,0,6.6,2.9,6.6,6.5c0,3.6-2.9,6.6-6.5,6.6c-3.6,0-6.6-2.9-6.6-6.5
		C324.6,366.6,327.5,363.6,331.1,363.6z"/>
	<path class="st5" d="M367,370.1c0,3.6-3,6.6-6.5,6.6c-3.6,0-6.6-2.9-6.6-6.5c0-3.6,2.9-6.6,6.5-6.6C364,363.6,367,366.5,367,370.1z
		"/>
	<path class="st5" d="M279.1,384.7c0,3.6-2.9,6.6-6.5,6.6c-3.6,0-6.6-2.9-6.6-6.5c0-3.6,2.9-6.6,6.5-6.6
		C276.1,378.2,279.1,381.1,279.1,384.7z"/>
	<path class="st5" d="M345.7,378.2c3.6,0,6.6,2.9,6.6,6.5c0,3.6-2.9,6.6-6.5,6.6c-3.6,0-6.6-2.9-6.6-6.5
		C339.2,381.3,342.1,378.3,345.7,378.2z"/>
	<path class="st5" d="M381.6,384.8c0,3.6-2.9,6.6-6.5,6.6c-3.6,0-6.6-2.9-6.6-6.5c0-3.6,2.9-6.6,6.5-6.6
		C378.6,378.2,381.6,381.2,381.6,384.8z"/>
	<path class="st5" d="M454.8,384.8c0,3.6-3,6.5-6.6,6.5c-3.6,0-6.5-3-6.5-6.6c0-3.6,3-6.5,6.6-6.5
		C452,378.3,454.9,381.3,454.8,384.8z"/>
	<path class="st5" d="M272.6,406c-3.6,0-6.6-2.9-6.6-6.5c0-3.6,2.9-6.6,6.5-6.6c3.6,0,6.6,2.9,6.6,6.5
		C279.1,403,276.2,406,272.6,406z"/>
	<path class="st5" d="M301.8,392.9c3.6,0,6.6,3,6.6,6.5c0,3.6-3,6.6-6.6,6.6c-3.6,0-6.6-3-6.6-6.6
		C295.3,395.8,298.2,392.9,301.8,392.9z"/>
	<path class="st5" d="M346,392.9c3.6,0.2,6.5,3.2,6.3,6.8c-0.2,3.6-3.2,6.5-6.8,6.3c-3.6-0.2-6.5-3.2-6.3-6.8
		C339.4,395.5,342.5,392.7,346,392.9z"/>
	<path class="st5" d="M381.6,399.5c0,3.6-3,6.5-6.6,6.5c-3.6,0-6.5-3-6.5-6.6c0-3.6,3-6.5,6.6-6.5
		C378.7,392.9,381.7,395.9,381.6,399.5z"/>
	<path class="st5" d="M389.7,392.9c3.6,0,6.6,2.9,6.6,6.5c0,3.6-2.9,6.6-6.5,6.6c-3.6,0-6.6-2.9-6.6-6.5
		C383.1,395.8,386.1,392.9,389.7,392.9z"/>
	<path class="st5" d="M425.6,399.4c0,3.6-2.9,6.6-6.5,6.6c-3.6,0-6.6-2.9-6.6-6.5c0-3.6,2.9-6.6,6.5-6.6
		C422.5,392.8,425.5,395.8,425.6,399.4z"/>
	<path class="st6" d="M404.2,172.4c3.5,0,7.1,0,10.6,0c6.6,0,11.3-4.7,11.4-11.3c0.1-7.1,0.1-14.2,0-21.3
		c-0.1-6.6-4.6-11.2-11.2-11.3c-7.2-0.1-14.3-0.1-21.5,0c-6.6,0.1-11.2,4.7-11.2,11.3c-0.1,7.2-0.1,14.3,0,21.5
		c0.1,6.5,4.9,11.1,11.4,11.2C397.3,172.5,400.8,172.4,404.2,172.4z"/>
	<path class="st6" d="M199.4,377.5c3.5,0,7,0,10.5,0c6.6-0.1,11.4-4.6,11.5-11.2c0.1-7.1,0.1-14.2,0-21.3
		c-0.1-6.7-4.6-11.3-11.3-11.4c-7.1-0.1-14.2-0.1-21.3,0c-6.7,0.1-11.2,4.7-11.3,11.4c-0.1,7-0.1,14.1,0,21.1
		c0.1,6.7,4.8,11.3,11.5,11.4C192.4,377.5,195.9,377.5,199.4,377.5z"/>
	<path class="st4" d="M404.2,172.4c-3.5,0-7,0-10.5,0c-6.5,0-11.3-4.7-11.4-11.2c-0.1-7.2-0.1-14.3,0-21.5
		c0.1-6.6,4.7-11.2,11.2-11.3c7.2-0.1,14.3-0.1,21.5,0c6.6,0.1,11.1,4.7,11.2,11.3c0.1,7.1,0.1,14.2,0,21.3
		c-0.1,6.6-4.8,11.3-11.4,11.3C411.3,172.5,407.8,172.4,404.2,172.4z"/>
	<path class="st4" d="M199.3,172.4c-3.5,0-7.1,0-10.6,0c-6.4-0.1-11.2-4.7-11.3-11.1c-0.1-7.3-0.1-14.5,0-21.8
		c0.1-6.5,4.8-11,11.3-11c7.1-0.1,14.2-0.1,21.3,0c6.6,0.1,11.2,4.7,11.3,11.4c0.1,7,0.1,14.1,0,21.1c0,6.7-4.8,11.4-11.5,11.4
		C206.3,172.5,202.8,172.4,199.3,172.4z"/>
	<path class="st5" d="M199.4,377.5c-3.5,0-7,0-10.5,0c-6.7,0-11.4-4.7-11.5-11.4c-0.1-7-0.1-14.1,0-21.1c0.1-6.7,4.6-11.3,11.3-11.4
		c7.1-0.1,14.2-0.1,21.3,0c6.7,0.1,11.2,4.7,11.3,11.4c0.1,7.1,0.1,14.2,0,21.3c-0.1,6.6-4.9,11.2-11.5,11.2
		C206.3,377.5,202.8,377.5,199.4,377.5z"/>
</g>
</svg>
