<?xml version="1.0" encoding="utf-8"?>
<!-- Generator: Adobe Illustrator 24.1.1, SVG Export Plug-In . SVG Version: 6.00 Build 0)  -->
<svg version="1.1" id="Layer_1" xmlns="http://www.w3.org/2000/svg" xmlns:xlink="http://www.w3.org/1999/xlink" x="0px" y="0px"
	 viewBox="0 0 922.3 240.1" style="enable-background:new 0 0 922.3 240.1;" xml:space="preserve">
<style type="text/css">
	.st0{fill:none;stroke:url(#SVGID_1_);stroke-width:28;stroke-linecap:round;stroke-linejoin:round;}
	.st1{fill:none;stroke:url(#SVGID_2_);stroke-width:28;stroke-linecap:round;stroke-linejoin:round;}
	.st2{enable-background:new    ;}
	.st3{fill:#4A017D;}
	.st4{fill:#0B0146;}
	.st5{fill:#7B047B;}
	.st6{fill:#3C1657;}
	.st7{fill:#FDFDFE;}
</style>
<linearGradient id="SVGID_1_" gradientUnits="userSpaceOnUse" x1="-792.0146" y1="1011.6539" x2="-592.8146" y2="1011.6539" gradientTransform="matrix(6.123234e-17 -1 1 6.123234e-17 -360.5039 -592.8146)">
	<stop  offset="0" style="stop-color:#0D0733"/>
	<stop  offset="6.868000e-02" style="stop-color:#190641"/>
	<stop  offset="0.2481" style="stop-color:#340362"/>
	<stop  offset="0.3983" style="stop-color:#440276"/>
	<stop  offset="0.5" style="stop-color:#4A017D"/>
	<stop  offset="1" style="stop-color:#82027E"/>
</linearGradient>
<path class="st0" d="M622.4,185.2l-56.7-0.1L565.6,14h171c0,57,0.1,114,0.1,170.9h-31.3"/>
<linearGradient id="SVGID_2_" gradientUnits="userSpaceOnUse" x1="649.6" y1="731.5" x2="804.6" y2="731.5" gradientTransform="matrix(1 0 0 1 0 -526)">
	<stop  offset="0" style="stop-color:#0B0146"/>
	<stop  offset="1.799000e-02" style="stop-color:#0E0149"/>
	<stop  offset="0.2126" style="stop-color:#2F0165"/>
	<stop  offset="0.3754" style="stop-color:#430177"/>
	<stop  offset="0.4856" style="stop-color:#4A017D"/>
	<stop  offset="1" style="stop-color:#82027E"/>
</linearGradient>
<polyline class="st1" points="663.6,184.9 663.6,226.1 790.6,226.1 "/>
<g class="st2">
	<path class="st3" d="M774.1,176.9c1.5-1.6,2.9-2.8,4.1-3.6c1.3-0.8,2.9-1.3,4.8-1.6l5.8-0.7v-44.1h-6.1l-5.2-1.6
		c-1.5-1.1-2.7-2.3-3.6-3.7c-0.9-1.8-1.3-3.8-1.3-5.9c0-2.3,0.7-4.7,2-7.3c1.3-2.6,3.4-3.9,6.1-3.9H803c1.3,0,2.6,0.7,3.8,2l3.1,2.9
		h0.4l8.1-3.1c1.6-0.7,2.9-1.2,3.9-1.5c1-0.2,2.6-0.3,4.8-0.3h76c1.8,0.3,3.6,1.3,5.4,2.8s2.7,3.1,2.7,4.6v23.8
		c-0.3,1.8-0.8,3.1-1.5,4c-0.7,0.8-1.5,1.5-2.6,1.9l-3.6,1.4h-3.4c-2.5,0-4.5-0.5-5.9-1.6c-1.4-1-2.5-2.3-3.1-3.8
		c-0.7-1.5-1.2-3.2-1.5-5.2l-0.7-5.6h-58.7c-1.5,0-2.8,0.2-3.8,0.5s-2.2,0.8-3.4,1.3c-2.4,1.4-4.4,3-6.1,4.8c-1.6,1.9-3,4-3.9,6.3
		c-1,2.3-1.5,4.6-1.5,6.9V171l5.6,0.4c2.4,0.5,4.1,1.1,5.2,1.8c1.6,0.8,2.9,1.9,3.9,3.4s1.5,3.4,1.5,5.6l-0.4,3.4l-1.3,3.6l-2.2,2.9
		c-0.8,0.8-1.9,1.1-3.4,1.1H780c-1.6-0.3-2.9-0.7-3.7-1.3s-1.5-1.4-1.9-2.5l-1.3-3.6l-0.4-3.4C772.7,180.1,773.2,178.2,774.1,176.9z
		"/>
</g>
<g>
	<g class="st2">
		<path class="st4" d="M23.9,154.2c0.7,0.2,1.3,0.5,1.8,1c1.2,0.9,2,1.9,2.5,3.1c0.7,1.2,1.1,2.6,1.3,4.3l1,4.4
			c0.9,2.8,2.2,5.4,4.1,7.5c2.3,2.3,4.9,3.4,7.7,3.4H73h0.8l1-0.3c3.8-1.3,6.7-3.2,8.8-5.7c2-2.5,3-5.8,3-9.9c0-3.1-0.7-6-2-8.8
			s-3.4-4.7-6.2-5.8l-1.5-0.5c-0.4-0.3-1.1-0.6-2-0.8l-1.8-0.5h-1H42.2l-2.6-0.5l-3.8-1c-7.2-2.2-12.8-6.1-16.7-11.8
			s-5.9-12.1-5.9-19.2c0-6.7,1.7-12.8,5-18.3s8.2-9.5,14.5-11.9c0.8-0.4,1.3-0.7,1.7-0.8c0.4-0.1,1.2-0.3,2.4-0.5
			c1.4-0.5,2.9-0.8,4.4-0.8h33.5c2.2,0,4.3,0.6,6.5,1.8c2.1,1.2,4.2,1.8,6.1,1.8c1.3-1.6,2.5-2.6,3.4-3c1-0.4,2.4-0.7,4.3-0.7
			c2,0.2,3.7,0.8,5.3,1.9c1.6,1,2.4,2.5,2.4,4.5v27.2c0,1.9-0.9,3.4-2.6,4.8c-1.7,1.3-3.5,2-5.4,2s-3.4-0.4-4.5-1.1s-2-1.7-2.5-3
			c-0.6-1.3-0.9-2.7-1.2-4.1l-0.8-4.4c-0.7-3-2.2-5.5-4.7-7.7c-2.5-2.4-5.3-3.6-8.3-3.6H43h-0.8l-1,0.3c-7.8,2.5-11.7,7.7-11.7,15.7
			c0,3,0.7,5.8,2.1,8.6c1.4,2.7,3.4,4.7,6.1,5.8l1.5,0.5l2.1,0.7l1.8,0.7h1h29.8l2.5,0.7l3.8,1c7.2,2.2,12.8,6.2,16.7,11.9
			c3.9,5.7,5.9,12.2,5.9,19.3c0,6.9-1.7,13-5,18.3c-3.3,5.2-8.1,9.2-14.4,12l-2,0.8l-2.5,0.7l-2.5,0.7h-1.8H39.9
			c-1.9,0-3.8-0.5-5.9-1.4l-5.4-2.4c-1.3,1.5-2.5,2.5-3.4,3c-1,0.5-2.4,0.8-4.3,0.8c-1.9-0.2-3.6-0.8-5.1-1.7
			c-1.8-1.3-2.6-2.9-2.6-4.8v-27.2c0-2.1,0.9-3.7,2.8-5s3.6-1.9,5.1-1.9C22.3,153.9,23.2,154,23.9,154.2z"/>
		<path class="st4" d="M109.3,182.3c0.8-1.1,1.6-1.9,2.6-2.5c1-0.5,2.2-0.9,3.6-1.2l4.4-0.5V96.9c-3.4-0.3-6.2-1-8.4-2
			c-2.2-1-3.4-3.2-3.4-6.7c0.2-1.8,0.7-3.3,1.3-4.8c1.1-1.9,2.5-2.8,4.1-2.8h17.2l1.6,0.7l1.8,1.3l1.6,1.8l0.7,1.6v43.3h44.1
			c2,0.2,3.9,0.6,5.9,1.2l5.9,2.1c5,2.3,8.6,5,10.8,8.2c2.6,3.5,4.5,7.2,5.5,11.1c1,3.9,1.6,8.1,1.6,12.6v13.7l4.3,0.5
			c1.8,0.3,3,0.8,3.8,1.3c1.2,0.5,2.2,1.4,2.8,2.6c0.7,1.2,1,2.6,1,4.1l-0.5,2.5l-1,2.5l-1.8,2c-0.7,0.5-1.4,0.8-2.1,0.8h-29.5
			c-1.3-0.2-2.3-0.5-2.9-1c-0.6-0.4-1.1-1-1.4-1.8l-1-2.6l-0.2-2.6c0-1.7,0.3-3.1,1-4.1c1.1-1.2,2.1-2.1,3-2.6s2-0.9,3.3-1.1
			c1.3-0.2,2.8-0.3,4.5-0.3v-8.6V164l-0.5-5.9c-0.3-2-1-3.7-2-5.3c-1-1.9-2.4-3.2-4.3-4.1l-3.8-1.8c-1.5-0.7-2.8-1-3.9-1h-42.8v32.5
			c3.5,0.3,6.4,1,8.6,2c2.2,1,3.3,3.2,3.3,6.7c0,1.4-0.5,3-1.5,4.8s-2.3,2.7-3.9,2.7h-29.5c-1.9-0.2-3.2-1.2-4.1-2.9
			s-1.3-3.3-1.3-4.8C108.2,184.8,108.5,183.4,109.3,182.3z"/>
		<path class="st4" d="M232.7,143.6c3.3-5.6,8.3-9.5,14.8-11.8c1.3-0.7,2.8-1.2,4.4-1.5c1.6-0.5,3.2-0.8,4.8-0.8h31.2
			c2.1,0,4.1,0.3,6.1,1l5.7,2.1c5,2.3,8.6,5,10.8,8.2c2.5,3.3,4.3,6.9,5.2,11c1.2,3.7,1.8,7.9,1.8,12.6V178l4.3,0.5
			c1.8,0.3,3.1,0.8,4.1,1.5c0.9,0.7,1.8,1.5,2.5,2.6s1.1,2.4,1.1,4.1c-0.2,1.8-0.8,3.5-1.8,5.2s-2.4,2.6-4.1,2.6h-16.7
			c-1.1-0.2-2.1-0.7-3-1.4l-2.3-2.4c-1.1,0.1-2.1,0.3-3,0.6s-1.9,0.7-2.9,1.3c-2,1.3-4.1,1.9-6.4,1.9h-33.6l-4.4-0.7l-4.1-1.6
			c-6.5-2.6-11.3-6.6-14.6-12s-4.9-11.3-4.9-17.8C227.7,155.4,229.4,149.2,232.7,143.6z M255.7,177.7c0.1,0.1,0.4,0.2,1,0.3h0.8
			h29.8h0.8l1.1-0.3l1.3-0.5l1.3-0.5c3.3-1.5,5.6-3.6,7-6.3c1.4-2.6,2.1-5.7,2.1-9.2c0-1.8-0.4-3.6-1.1-5.6s-1.8-3.7-3.2-5.1
			c-1.4-1.4-2.8-2.5-4.1-3.1c-1.3-0.7-2.3-1.1-3-1.2c-0.7-0.2-1.7-0.2-3.1-0.2h-28c-2.2,0-4.1,0.4-5.8,1.3c-1.7,0.9-3.3,2-4.7,3.5
			c-1.4,1.4-2.5,3.1-3.1,5c-0.7,1.9-1,3.8-1,5.7C243.9,169.9,247.9,175.4,255.7,177.7z"/>
		<path class="st4" d="M335.9,182.4c1.1-1.2,2.1-2.1,3-2.6s2.1-0.9,3.5-1.2l4.3-0.5v-32.3h-4.4l-3.8-1.2c-1.1-0.8-2-1.7-2.6-2.7
			c-0.7-1.3-1-2.8-1-4.4c0-1.7,0.5-3.5,1.5-5.4s2.5-2.8,4.4-2.8H357c1,0,1.9,0.5,2.8,1.5l2.3,2.1h0.3l5.9-2.3
			c1.2-0.5,2.2-0.9,2.9-1.1c0.7-0.2,1.9-0.2,3.5-0.2h55.6c1.3,0.2,2.6,0.9,3.9,2.1s2,2.3,2,3.4v17.4c-0.2,1.3-0.6,2.3-1.1,2.9
			c-0.5,0.6-1.1,1.1-1.9,1.4l-2.6,1h-2.5c-1.9,0-3.3-0.4-4.3-1.1c-1-0.8-1.8-1.7-2.3-2.8s-0.8-2.3-1.1-3.8l-0.5-4.1h-43
			c-1.1,0-2,0.1-2.8,0.3s-1.6,0.5-2.5,1c-1.8,1-3.2,2.2-4.4,3.5c-1.2,1.4-2.2,2.9-2.9,4.6c-0.7,1.7-1.1,3.4-1.1,5v17.8l4.1,0.3
			c1.7,0.3,3,0.8,3.8,1.3c1.2,0.5,2.2,1.4,2.9,2.5c0.7,1.1,1.1,2.5,1.1,4.1l-0.3,2.5l-1,2.6l-1.6,2.1c-0.5,0.5-1.4,0.8-2.5,0.8
			h-29.5c-1.2-0.2-2.1-0.5-2.7-1c-0.6-0.4-1.1-1-1.4-1.8l-1-2.6l-0.3-2.5C335,184.8,335.3,183.4,335.9,182.4z"/>
		<path class="st4" d="M446.4,143.7c3.1-5.4,7.7-9.3,13.9-11.7l2.1-0.8c0.7-0.3,1.6-0.6,3-0.8c0.7-0.3,1.6-0.6,3-0.8h2.5h43
			c1.7,0,3.7,0.5,5.7,1.5c2.1,1,3.9,2.2,5.4,3.6c1.7,1.3,3.2,3,4.3,4.9c1.2,1.6,1.8,3.5,1.8,5.4v9.6c-0.2,1.9-0.8,3.6-1.8,5.3
			c-1.4,2.1-2.8,3.8-4.3,5.2c-1.4,1.4-3.2,2.6-5.2,3.6c-2.1,1-3.9,1.6-5.4,1.6h-54.3c0.2,1,0.7,1.9,1.3,2.8l3.3,2.8l3.8,2l3.3,0.7
			h52.5c2.1,0,3.7,0.9,5,2.7s1.9,3.6,1.9,5.3v2.6l-1,2.6l-1.8,2c-0.5,0.5-1.4,0.8-2.5,0.8H470l-4.4-0.8l-4.1-1.5
			c-6.7-2.5-11.6-6.5-14.8-12c-3.2-5.5-4.8-11.6-4.8-18.4C441.7,155.1,443.3,149.1,446.4,143.7z M511.9,153.4l1.6-0.5
			c0.3-0.2,0.7-0.7,1.1-1.3v-4.1c-0.1-0.1-0.2-0.2-0.2-0.3c-0.3-0.4-0.8-0.7-1.3-0.8l-1.3-0.7h-39.4l-3.8,0.7L465,148
			c-1.1,0.5-2.2,1.3-3.2,2.4c-1,1-1.7,2-2,3L511.9,153.4L511.9,153.4z"/>
	</g>
</g>
<g>
	<path class="st5" d="M711.5,59.4c0,3.3,0,6.6,0,9.9c0,5-3.4,9.1-8.2,10c-0.7,0.1-1.4,0.2-2.1,0.2c-6.5,0-13,0-19.5,0
		c-6,0-10.4-4.4-10.4-10.3c0-6.6,0-13.1,0-19.7c0-4.5,2.7-8.3,6.9-9.7c1.1-0.4,2.1-0.5,3.3-0.5c6.6,0,13.2,0,19.8,0
		c5.8,0,10.2,4.4,10.3,10.2C711.5,52.8,711.5,56.1,711.5,59.4z M691.4,73.7c2.4,0,4.7,0,7.1,0c4.2,0,7.3-3.1,7.3-7.3
		c0-4.7,0-9.4,0-14.1c0-4.2-3.1-7.3-7.3-7.3c-4.7,0-9.4,0-14.1,0c-4.2,0-7.3,3.1-7.3,7.4c0,4.7,0,9.4,0,14c0,4.2,3.1,7.3,7.3,7.4
		C686.7,73.7,689,73.7,691.4,73.7z"/>
	<path class="st5" d="M610.9,39.2c3.3,0,6.6,0,9.9,0c5.7,0,10.2,4.4,10.2,10.1c0,6.7,0.1,13.5,0,20.2c0,5.6-4.5,10-10.2,10
		c-6.6,0-13.3,0-19.9,0c-5.8,0-10.1-4.5-10.1-10.2c0-6.6,0-13.2,0-19.7c0-5.9,4.4-10.3,10.3-10.3C604.3,39.2,607.6,39.2,610.9,39.2z
		 M610.9,45c-2.4,0-4.7,0-7.1,0c-4.2,0-7.3,3.1-7.3,7.4c0,4.7,0,9.3,0,14c0,4.3,3.1,7.4,7.4,7.4c4.6,0,9.3,0,13.9,0
		c4.3,0,7.4-3.1,7.4-7.4c0-4.7,0-9.3,0-14c0-4.3-3.1-7.4-7.4-7.4C615.5,45,613.2,45,610.9,45z"/>
	<path class="st6" d="M610.9,119.8c3.4,0,6.7,0,10.1,0c4.6,0,8.6,3.2,9.8,7.7c0.2,0.9,0.3,1.9,0.3,2.9c0,6.5,0,13,0,19.5
		c0,5-3.5,9.2-8.3,10c-0.7,0.1-1.4,0.2-2.1,0.2c-6.5,0-12.9,0-19.4,0c-2.2,0-4.2-0.5-6-1.8c-2.9-2-4.3-4.8-4.4-8.3
		c-0.1-6.7,0-13.4,0-20.1c0-5.7,4.5-10.1,10.3-10.1C604.3,119.8,607.6,119.8,610.9,119.8z M610.9,125.5c-2.4,0-4.8,0-7.2,0
		c-4.1,0-7.2,3.2-7.2,7.3c0,4.7,0,9.5,0,14.2c0,4.2,3.1,7.3,7.3,7.3c4.7,0,9.4,0,14.1,0c4.2,0,7.3-3.1,7.3-7.3c0-4.7,0-9.4,0-14
		c0-4.2-3.1-7.4-7.4-7.4C615.6,125.5,613.2,125.5,610.9,125.5z"/>
	<path class="st5" d="M665.2,42.1c0,1.4-1.2,2.6-2.6,2.6c-1.4,0-2.6-1.2-2.6-2.6c0-1.4,1.2-2.6,2.6-2.6S665.2,40.7,665.2,42.1z"/>
	<path class="st5" d="M653.7,47.8c0,1.4-1.2,2.6-2.6,2.6c-1.4,0-2.6-1.2-2.6-2.6c0-1.4,1.2-2.6,2.6-2.6
		C652.5,45.3,653.7,46.4,653.7,47.8z"/>
	<path class="st5" d="M656.9,50.4c-1.4,0-2.6-1.2-2.6-2.6c0-1.4,1.2-2.6,2.6-2.6c1.4,0,2.6,1.2,2.6,2.6
		C659.5,49.3,658.3,50.4,656.9,50.4z"/>
	<path class="st5" d="M642.2,53.6c0,1.4-1.2,2.6-2.6,2.6c-1.4,0-2.6-1.2-2.6-2.6c0-1.4,1.2-2.6,2.6-2.6S642.2,52.2,642.2,53.6z"/>
	<path class="st5" d="M648,53.6c0,1.4-1.2,2.6-2.6,2.6c-1.4,0-2.6-1.2-2.6-2.6c0-1.4,1.2-2.6,2.6-2.6S647.9,52.2,648,53.6z"/>
	<path class="st5" d="M656.9,51c1.4,0,2.6,1.2,2.6,2.6c0,1.4-1.2,2.6-2.6,2.6c-1.4,0-2.6-1.2-2.6-2.6C654.3,52.2,655.5,51,656.9,51z
		"/>
	<path class="st5" d="M642.2,59.4c0,1.4-1.2,2.6-2.6,2.6c-1.4,0-2.6-1.2-2.6-2.6c0-1.4,1.2-2.6,2.6-2.6
		C641,56.8,642.2,58,642.2,59.4z"/>
	<path class="st5" d="M648,59.4c0,1.4-1.2,2.6-2.6,2.6c-1.4,0-2.6-1.2-2.6-2.6c0-1.4,1.2-2.6,2.6-2.6C646.8,56.8,648,58,648,59.4z"
		/>
	<path class="st5" d="M662.6,61.9c-1.4,0-2.6-1.2-2.6-2.6c0-1.4,1.2-2.6,2.6-2.6c1.4,0,2.6,1.2,2.6,2.6
		C665.2,60.8,664,62,662.6,61.9z"/>
	<path class="st5" d="M642.2,65.1c0,1.4-1.1,2.6-2.6,2.6c-1.4,0-2.6-1.1-2.6-2.6c0-1.4,1.1-2.6,2.6-2.6
		C641,62.5,642.2,63.7,642.2,65.1z"/>
	<path class="st5" d="M659.5,65.1c0,1.4-1.2,2.6-2.6,2.6c-1.4,0-2.6-1.2-2.6-2.6s1.2-2.6,2.6-2.6S659.5,63.7,659.5,65.1z"/>
	<path class="st5" d="M645.3,73.4c-1.4,0-2.6-1.2-2.6-2.6s1.2-2.6,2.6-2.6c1.4,0,2.6,1.2,2.6,2.6C647.9,72.3,646.7,73.5,645.3,73.4z
		"/>
	<path class="st5" d="M651.1,73.4c-1.4,0-2.6-1.2-2.6-2.6s1.2-2.6,2.6-2.6c1.4,0,2.6,1.2,2.6,2.6C653.7,72.3,652.5,73.5,651.1,73.4z
		"/>
	<path class="st5" d="M659.5,70.9c0,1.4-1.2,2.6-2.6,2.5c-1.4,0-2.6-1.2-2.5-2.6c0-1.4,1.2-2.6,2.6-2.5
		C658.3,68.3,659.5,69.5,659.5,70.9z"/>
	<path class="st5" d="M665.2,70.9c0,1.4-1.2,2.6-2.6,2.6c-1.4,0-2.6-1.2-2.6-2.6s1.2-2.6,2.6-2.6S665.2,69.5,665.2,70.9z"/>
	<path class="st5" d="M639.6,74c1.4,0,2.6,1.2,2.6,2.6s-1.2,2.6-2.6,2.6c-1.4,0-2.6-1.2-2.6-2.6S638.2,74,639.6,74z"/>
	<path class="st5" d="M653.7,76.6c0,1.4-1.2,2.6-2.6,2.6c-1.4,0-2.6-1.2-2.6-2.6s1.2-2.6,2.6-2.6S653.7,75.2,653.7,76.6z"/>
	<path class="st5" d="M662.6,74c1.4,0,2.6,1.2,2.6,2.6s-1.2,2.6-2.6,2.6c-1.4,0-2.6-1.2-2.6-2.6C660.1,75.2,661.2,74,662.6,74z"/>
	<path class="st5" d="M656.9,79.8c1.4,0,2.6,1.2,2.6,2.6s-1.2,2.6-2.6,2.6c-1.4,0-2.6-1.2-2.6-2.6C654.3,80.9,655.5,79.8,656.9,79.8
		z"/>
	<path class="st5" d="M665.2,82.4c0,1.4-1.2,2.6-2.6,2.6c-1.4,0-2.6-1.2-2.6-2.6s1.2-2.6,2.6-2.6S665.2,80.9,665.2,82.4z"/>
	<path class="st5" d="M596.2,88.1c0,1.4-1.2,2.6-2.6,2.6c-1.4,0-2.6-1.2-2.6-2.6s1.2-2.6,2.6-2.6S596.2,86.7,596.2,88.1z"/>
	<path class="st5" d="M599.4,85.5c1.4,0,2.6,1.2,2.6,2.6s-1.2,2.6-2.6,2.6c-1.4,0-2.6-1.2-2.6-2.6C596.8,86.7,598,85.5,599.4,85.5z"
		/>
	<path class="st5" d="M605.1,90.7c-1.4,0-2.6-1.1-2.6-2.6c0-1.4,1.1-2.6,2.6-2.6c1.4,0,2.6,1.1,2.6,2.6
		C607.7,89.5,606.5,90.7,605.1,90.7z"/>
	<path class="st5" d="M610.9,90.7c-1.4,0-2.6-1.1-2.6-2.6c0-1.4,1.1-2.6,2.6-2.6c1.4,0,2.6,1.1,2.6,2.6
		C613.5,89.5,612.3,90.7,610.9,90.7z"/>
	<path class="st5" d="M628.1,90.7c-1.4,0-2.6-1.2-2.6-2.6s1.2-2.6,2.6-2.6c1.4,0,2.6,1.2,2.6,2.6C630.7,89.5,629.5,90.7,628.1,90.7z
		"/>
	<path class="st5" d="M642.2,88.1c0,1.4-1.2,2.6-2.6,2.6c-1.4,0-2.6-1.2-2.6-2.6s1.2-2.6,2.6-2.6S642.2,86.7,642.2,88.1z"/>
	<path class="st5" d="M648,88.1c0,1.4-1.2,2.6-2.6,2.6c-1.4,0-2.6-1.2-2.6-2.6s1.2-2.6,2.6-2.6S648,86.7,648,88.1z"/>
	<path class="st5" d="M653.7,88.1c0,1.4-1.2,2.6-2.6,2.6c-1.4,0-2.6-1.2-2.6-2.6s1.2-2.6,2.6-2.6S653.7,86.7,653.7,88.1z"/>
	<path class="st5" d="M659.5,88.1c0,1.4-1.2,2.6-2.6,2.6c-1.4,0-2.6-1.2-2.6-2.6s1.2-2.6,2.6-2.6S659.5,86.7,659.5,88.1z"/>
	<path class="st5" d="M665.2,88.1c0,1.4-1.2,2.6-2.6,2.6c-1.4,0-2.6-1.2-2.6-2.6s1.2-2.6,2.6-2.6S665.2,86.7,665.2,88.1z"/>
	<path class="st5" d="M671,88.1c0,1.4-1.2,2.6-2.6,2.6c-1.4,0-2.6-1.2-2.6-2.6s1.2-2.6,2.6-2.6S671,86.7,671,88.1z"/>
	<path class="st5" d="M685.6,85.5c1.4,0,2.6,1.2,2.6,2.6s-1.2,2.6-2.6,2.6c-1.4,0-2.6-1.2-2.6-2.6S684.2,85.5,685.6,85.5z"/>
	<path class="st5" d="M691.4,90.7c-1.4,0-2.6-1.1-2.6-2.6c0-1.4,1.1-2.6,2.6-2.6c1.4,0,2.6,1.1,2.6,2.6
		C694,89.5,692.8,90.7,691.4,90.7z"/>
	<path class="st5" d="M697.1,90.7c-1.4,0-2.6-1.2-2.6-2.6s1.2-2.6,2.6-2.6c1.4,0,2.6,1.2,2.6,2.6C699.7,89.5,698.5,90.7,697.1,90.7z
		"/>
	<path class="st5" d="M708.6,90.7c-1.4,0-2.6-1.2-2.6-2.6s1.2-2.6,2.6-2.6c1.4,0,2.6,1.2,2.6,2.6C711.2,89.6,710,90.7,708.6,90.7z"
		/>
	<path class="st5" d="M601.9,93.8c0,1.4-1.1,2.6-2.6,2.6c-1.4,0-2.6-1.1-2.6-2.6c0-1.4,1.1-2.6,2.6-2.6
		C600.7,91.3,601.9,92.4,601.9,93.8z"/>
	<path class="st5" d="M624.9,93.9c0,1.4-1.2,2.6-2.6,2.6c-1.4,0-2.6-1.2-2.6-2.6s1.2-2.6,2.6-2.6C623.8,91.3,625,92.5,624.9,93.9z"
		/>
	<path class="st5" d="M642.2,93.9c0,1.4-1.2,2.6-2.6,2.6c-1.4,0-2.6-1.2-2.6-2.6s1.2-2.6,2.6-2.6S642.2,92.5,642.2,93.9z"/>
	<path class="st5" d="M648,93.9c0,1.4-1.2,2.6-2.6,2.6c-1.4,0-2.6-1.2-2.6-2.6s1.2-2.6,2.6-2.6S647.9,92.5,648,93.9z"/>
	<path class="st5" d="M653.7,93.9c0,1.4-1.2,2.6-2.6,2.6c-1.4,0-2.6-1.2-2.6-2.6s1.2-2.6,2.6-2.6S653.7,92.5,653.7,93.9z"/>
	<path class="st5" d="M656.9,96.5c-1.4,0-2.6-1.2-2.6-2.6s1.2-2.6,2.6-2.6c1.4,0,2.6,1.2,2.6,2.6S658.3,96.4,656.9,96.5z"/>
	<path class="st5" d="M662.6,96.5c-1.4,0-2.6-1.2-2.6-2.6s1.2-2.6,2.6-2.6c1.4,0,2.6,1.2,2.6,2.6C665.2,95.3,664,96.5,662.6,96.5z"
		/>
	<path class="st5" d="M668.4,91.3c1.4,0,2.6,1.2,2.6,2.6s-1.2,2.6-2.6,2.6c-1.4,0-2.6-1.2-2.6-2.6C665.8,92.4,667,91.3,668.4,91.3z"
		/>
	<path class="st5" d="M674.1,96.5c-1.4,0-2.6-1.2-2.6-2.6s1.2-2.6,2.6-2.6c1.4,0,2.6,1.2,2.6,2.6C676.7,95.3,675.5,96.4,674.1,96.5z
		"/>
	<path class="st5" d="M679.9,91.3c1.4,0,2.6,1.2,2.6,2.6s-1.2,2.6-2.6,2.6c-1.4,0-2.6-1.2-2.6-2.6C677.3,92.4,678.5,91.3,679.9,91.3
		z"/>
	<path class="st5" d="M708.7,91.3c1.4,0,2.6,1.2,2.6,2.6s-1.2,2.6-2.6,2.6c-1.4,0-2.6-1.2-2.6-2.6C706.1,92.4,707.3,91.3,708.7,91.3
		z"/>
	<path class="st5" d="M593.6,97c1.4,0,2.6,1.2,2.6,2.6s-1.2,2.6-2.6,2.6c-1.4,0-2.6-1.2-2.6-2.6S592.2,97.1,593.6,97z"/>
	<path class="st5" d="M601.9,99.6c0,1.4-1.2,2.6-2.6,2.6c-1.4,0-2.6-1.2-2.6-2.6s1.2-2.6,2.6-2.6S601.9,98.2,601.9,99.6z"/>
	<path class="st5" d="M619.2,99.6c0,1.4-1.1,2.6-2.6,2.6c-1.4,0-2.6-1.1-2.6-2.6c0-1.4,1.1-2.6,2.6-2.6
		C618,97,619.2,98.2,619.2,99.6z"/>
	<path class="st5" d="M630.7,99.6c0,1.4-1.2,2.6-2.6,2.6c-1.4,0-2.6-1.2-2.6-2.6s1.2-2.6,2.6-2.6S630.7,98.2,630.7,99.6z"/>
	<path class="st5" d="M633.9,102.2c-1.4,0-2.6-1.1-2.6-2.6c0-1.4,1.1-2.6,2.6-2.6c1.4,0,2.6,1.1,2.6,2.6
		C636.5,101,635.3,102.2,633.9,102.2z"/>
	<path class="st5" d="M645.3,102.2c-1.4,0-2.6-1.2-2.5-2.6c0-1.4,1.2-2.6,2.6-2.5c1.4,0,2.6,1.2,2.5,2.6
		C647.9,101.1,646.7,102.2,645.3,102.2z"/>
	<path class="st5" d="M659.5,99.6c0,1.4-1.1,2.6-2.6,2.6c-1.4,0-2.6-1.1-2.6-2.6c0-1.4,1.1-2.6,2.6-2.6
		C658.2,97,659.4,98.2,659.5,99.6z"/>
	<path class="st5" d="M694,99.6c0,1.4-1.2,2.6-2.6,2.6c-1.4,0-2.6-1.2-2.6-2.6s1.2-2.6,2.6-2.6S694,98.2,694,99.6z"/>
	<path class="st5" d="M705.5,99.6c0,1.4-1.2,2.6-2.6,2.6c-1.4,0-2.6-1.2-2.6-2.6s1.2-2.6,2.6-2.6S705.5,98.2,705.5,99.6z"/>
	<path class="st5" d="M711.2,99.6c0,1.4-1.2,2.6-2.6,2.6c-1.4,0-2.6-1.2-2.6-2.6s1.2-2.6,2.6-2.6S711.2,98.2,711.2,99.6z"/>
	<path class="st5" d="M593.6,108c-1.4,0-2.6-1.1-2.6-2.6c0-1.4,1.1-2.6,2.6-2.6c1.4,0,2.6,1.1,2.6,2.6
		C596.2,106.7,595,107.9,593.6,108z"/>
	<path class="st5" d="M601.9,105.4c0,1.4-1.2,2.6-2.6,2.6c-1.4,0-2.6-1.2-2.6-2.6s1.2-2.6,2.6-2.6S601.9,104,601.9,105.4z"/>
	<path class="st5" d="M624.9,105.4c0,1.4-1.2,2.6-2.6,2.6c-1.4,0-2.6-1.2-2.6-2.6s1.2-2.6,2.6-2.6C623.8,102.8,625,104,624.9,105.4z
		"/>
	<path class="st5" d="M639.6,108c-1.4,0-2.6-1.2-2.6-2.6s1.2-2.6,2.6-2.6c1.4,0,2.6,1.2,2.6,2.6C642.2,106.8,641,108,639.6,108z"/>
	<path class="st5" d="M651.1,102.8c1.4,0,2.6,1.2,2.6,2.6s-1.2,2.6-2.6,2.6c-1.4,0-2.6-1.2-2.6-2.6S649.7,102.8,651.1,102.8z"/>
	<path class="st5" d="M656.9,108c-1.4,0-2.6-1.1-2.6-2.6c0-1.4,1.1-2.6,2.6-2.6c1.4,0,2.6,1.1,2.6,2.6
		C659.5,106.7,658.3,107.9,656.9,108z"/>
	<path class="st5" d="M676.7,105.4c0,1.4-1.2,2.6-2.6,2.6c-1.4,0-2.6-1.2-2.6-2.6s1.2-2.6,2.6-2.6
		C675.6,102.8,676.7,104,676.7,105.4z"/>
	<path class="st5" d="M694,105.3c0,1.4-1.1,2.6-2.6,2.6c-1.4,0-2.6-1.1-2.6-2.6c0-1.4,1.1-2.6,2.6-2.6
		C692.8,102.8,693.9,103.9,694,105.3z"/>
	<path class="st5" d="M708.6,108c-1.4,0-2.6-1.2-2.6-2.6s1.2-2.6,2.6-2.6c1.4,0,2.6,1.2,2.6,2.6C711.2,106.8,710,108,708.6,108z"/>
	<path class="st5" d="M607.7,111.2c0,1.4-1.2,2.6-2.6,2.6c-1.4,0-2.6-1.2-2.6-2.6s1.2-2.6,2.6-2.6S607.7,109.8,607.7,111.2z"/>
	<path class="st5" d="M610.9,108.5c1.4,0,2.6,1.2,2.6,2.6s-1.2,2.6-2.6,2.6c-1.4,0-2.6-1.2-2.6-2.6
		C608.3,109.7,609.5,108.5,610.9,108.5z"/>
	<path class="st5" d="M624.9,111.1c0,1.4-1.2,2.6-2.6,2.6c-1.4,0-2.6-1.2-2.6-2.6s1.2-2.6,2.6-2.6
		C623.8,108.6,625,109.7,624.9,111.1z"/>
	<path class="st5" d="M630.7,111.1c0,1.4-1.2,2.6-2.6,2.6c-1.4,0-2.6-1.2-2.6-2.6s1.2-2.6,2.6-2.6S630.7,109.7,630.7,111.1z"/>
	<path class="st5" d="M639.6,108.5c1.4,0,2.6,1.2,2.6,2.6s-1.2,2.6-2.6,2.6c-1.4,0-2.6-1.2-2.6-2.6
		C637.1,109.7,638.2,108.5,639.6,108.5z"/>
	<path class="st5" d="M645.4,113.7c-1.4,0-2.6-1.1-2.6-2.6c0-1.4,1.1-2.6,2.6-2.6c1.4,0,2.6,1.1,2.6,2.6
		C648,112.5,646.8,113.7,645.4,113.7z"/>
	<path class="st5" d="M651.1,113.7c-1.4,0-2.6-1.2-2.6-2.6s1.2-2.6,2.6-2.6c1.4,0,2.6,1.2,2.6,2.6
		C653.7,112.6,652.5,113.7,651.1,113.7z"/>
	<path class="st5" d="M665.2,111.2c0,1.4-1.2,2.6-2.6,2.5c-1.4,0-2.6-1.2-2.5-2.6c0-1.4,1.2-2.6,2.6-2.5
		C664.1,108.6,665.2,109.8,665.2,111.2z"/>
	<path class="st5" d="M682.5,111.2c0,1.4-1.2,2.6-2.6,2.6c-1.4,0-2.6-1.2-2.6-2.6s1.2-2.6,2.6-2.6S682.5,109.8,682.5,111.2z"/>
	<path class="st6" d="M642.2,116.9c0,1.4-1.2,2.6-2.6,2.6c-1.4,0-2.6-1.2-2.6-2.6s1.2-2.6,2.6-2.6S642.2,115.5,642.2,116.9z"/>
	<path class="st6" d="M651.1,114.3c1.4,0,2.6,1.2,2.6,2.6s-1.2,2.6-2.6,2.6c-1.4,0-2.6-1.2-2.6-2.6S649.7,114.3,651.1,114.3z"/>
	<path class="st6" d="M656.9,114.3c1.4,0,2.6,1.2,2.6,2.6s-1.2,2.6-2.6,2.6c-1.4,0-2.6-1.2-2.6-2.6
		C654.3,115.5,655.5,114.3,656.9,114.3z"/>
	<path class="st6" d="M676.7,116.9c0,1.4-1.2,2.6-2.6,2.6c-1.4,0-2.6-1.2-2.6-2.6s1.2-2.6,2.6-2.6S676.7,115.5,676.7,116.9z"/>
	<path class="st6" d="M679.9,114.3c1.4,0,2.6,1.2,2.6,2.6s-1.2,2.6-2.6,2.6c-1.4,0-2.6-1.2-2.6-2.6
		C677.3,115.5,678.5,114.3,679.9,114.3z"/>
	<path class="st6" d="M691.4,119.5c-1.4,0-2.6-1.1-2.6-2.5s1.1-2.6,2.5-2.6s2.6,1.1,2.6,2.5C694,118.2,692.8,119.4,691.4,119.5z"/>
	<path class="st6" d="M705.5,116.9c0,1.4-1.2,2.6-2.6,2.6c-1.4,0-2.6-1.2-2.6-2.6s1.2-2.6,2.6-2.6S705.5,115.5,705.5,116.9z"/>
	<path class="st6" d="M711.2,117c-0.1,1.4-1.3,2.5-2.7,2.5c-1.4-0.1-2.5-1.3-2.5-2.7c0.1-1.4,1.3-2.5,2.7-2.5
		C710.2,114.4,711.3,115.6,711.2,117z"/>
	<path class="st5" d="M642.2,42.1c0,1.4-1.2,2.6-2.6,2.6c-1.4,0-2.6-1.2-2.6-2.6c0-1.4,1.2-2.6,2.6-2.6S642.2,40.7,642.2,42.1z"/>
	<path class="st6" d="M647.9,122.7c0,1.4-1.2,2.6-2.6,2.6c-1.4,0-2.6-1.2-2.6-2.6s1.2-2.6,2.6-2.6
		C646.8,120.1,648,121.3,647.9,122.7z"/>
	<path class="st6" d="M659.4,122.6c0,1.4-1.2,2.6-2.6,2.6c-1.4,0-2.6-1.2-2.6-2.6s1.2-2.6,2.6-2.6
		C658.3,120,659.4,121.2,659.4,122.6z"/>
	<path class="st6" d="M665.2,122.7c0,1.4-1.2,2.6-2.6,2.6c-1.4,0-2.6-1.2-2.6-2.6s1.2-2.6,2.6-2.6
		C664.1,120.1,665.2,121.3,665.2,122.7z"/>
	<path class="st6" d="M682.5,122.6c0,1.4-1.1,2.6-2.6,2.6c-1.4,0-2.6-1.1-2.6-2.6c0-1.4,1.1-2.6,2.6-2.6
		C681.3,120,682.4,121.2,682.5,122.6z"/>
	<path class="st6" d="M685.6,125.2c-1.4,0-2.6-1.2-2.5-2.6c0-1.4,1.2-2.6,2.6-2.5c1.4,0,2.6,1.2,2.5,2.6
		C688.2,124.1,687,125.2,685.6,125.2z"/>
	<path class="st6" d="M688.8,122.6c0-1.4,1.2-2.6,2.6-2.6c1.4,0,2.6,1.2,2.6,2.6s-1.2,2.6-2.6,2.6S688.8,124,688.8,122.6z"/>
	<path class="st5" d="M653.7,42.1c0,1.4-1.1,2.6-2.6,2.6c-1.4,0-2.6-1.1-2.6-2.6c0-1.4,1.1-2.6,2.6-2.6
		C652.5,39.5,653.7,40.7,653.7,42.1z"/>
	<path class="st6" d="M647.9,128.4c0,1.4-1.2,2.6-2.6,2.6c-1.4,0-2.6-1.2-2.6-2.6c0-1.4,1.2-2.6,2.6-2.6
		C646.8,125.8,647.9,127,647.9,128.4z"/>
	<path class="st6" d="M653.7,128.4c0,1.4-1.2,2.6-2.6,2.6c-1.4,0-2.6-1.2-2.6-2.6c0-1.4,1.2-2.6,2.6-2.6
		C652.5,125.8,653.7,127,653.7,128.4z"/>
	<path class="st6" d="M694,128.4c0,1.4-1.2,2.6-2.6,2.6c-1.4,0-2.6-1.2-2.6-2.6c0-1.4,1.2-2.6,2.6-2.6
		C692.8,125.8,694,127,694,128.4z"/>
	<path class="st6" d="M699.7,128.4c0,1.4-1.2,2.6-2.6,2.6c-1.4,0-2.6-1.2-2.6-2.6c0-1.4,1.2-2.6,2.6-2.6
		C698.5,125.8,699.7,127,699.7,128.4z"/>
	<path class="st6" d="M705.5,128.4c0,1.4-1.2,2.6-2.6,2.6c-1.4,0-2.6-1.2-2.6-2.6c0-1.4,1.2-2.6,2.6-2.6
		C704.3,125.8,705.5,127,705.5,128.4z"/>
	<path class="st6" d="M711.2,128.4c0,1.4-1.2,2.6-2.6,2.6c-1.4,0-2.6-1.2-2.6-2.6c0-1.4,1.2-2.6,2.6-2.6
		C710,125.8,711.2,127,711.2,128.4z"/>
	<path class="st5" d="M656.9,39.5c1.4,0,2.6,1.2,2.6,2.6c0,1.4-1.2,2.6-2.6,2.6c-1.4,0-2.6-1.2-2.6-2.6
		C654.3,40.7,655.5,39.5,656.9,39.5z"/>
	<path class="st6" d="M665.2,134.2c0,1.4-1.2,2.6-2.6,2.6c-1.4,0-2.6-1.2-2.6-2.6c0-1.4,1.2-2.6,2.6-2.6
		C664.1,131.6,665.2,132.8,665.2,134.2z"/>
	<path class="st6" d="M668.4,131.6c1.4,0,2.6,1.2,2.6,2.6c0,1.4-1.2,2.6-2.6,2.6c-1.4,0-2.6-1.2-2.6-2.6
		C665.8,132.7,667,131.6,668.4,131.6z"/>
	<path class="st6" d="M674.1,131.6c1.4,0,2.6,1.1,2.6,2.6c0,1.4-1.1,2.6-2.6,2.6c-1.4,0-2.6-1.1-2.6-2.6
		C671.5,132.8,672.7,131.6,674.1,131.6z"/>
	<path class="st6" d="M697.2,136.7c-1.4,0-2.6-1.2-2.6-2.6c0-1.4,1.2-2.6,2.6-2.6c1.4,0,2.6,1.2,2.6,2.6
		C699.7,135.5,698.6,136.7,697.2,136.7z"/>
	<path class="st6" d="M700.3,134.1c0-1.4,1.2-2.6,2.6-2.5c1.4,0,2.6,1.2,2.5,2.6c0,1.4-1.2,2.6-2.6,2.5
		C701.4,136.7,700.3,135.5,700.3,134.1z"/>
	<path class="st6" d="M711.2,134.1c0,1.4-1.2,2.6-2.6,2.6c-1.4,0-2.6-1.2-2.6-2.6c0-1.4,1.2-2.6,2.6-2.6
		C710,131.6,711.2,132.7,711.2,134.1z"/>
	<path class="st6" d="M642.2,139.9c0,1.4-1.1,2.6-2.5,2.6s-2.6-1.1-2.6-2.5s1.1-2.6,2.5-2.6C641,137.3,642.2,138.4,642.2,139.9z"/>
	<path class="st6" d="M659.4,139.9c0,1.4-1.1,2.6-2.6,2.6c-1.4,0-2.6-1.1-2.6-2.6c0-1.4,1.1-2.6,2.6-2.6
		C658.3,137.3,659.4,138.4,659.4,139.9z"/>
	<path class="st6" d="M676.7,139.9c0,1.4-1.1,2.6-2.6,2.6c-1.4,0-2.6-1.1-2.6-2.6c0-1.4,1.1-2.6,2.6-2.6
		C675.5,137.3,676.7,138.4,676.7,139.9z"/>
	<path class="st6" d="M679.9,142.5c-1.4,0-2.6-1.1-2.6-2.5s1.1-2.6,2.5-2.6s2.6,1.1,2.6,2.5C682.5,141.3,681.3,142.4,679.9,142.5z"
		/>
	<path class="st6" d="M685.6,137.3c1.4,0,2.6,1.2,2.6,2.6c0,1.4-1.2,2.6-2.6,2.6c-1.4,0-2.6-1.2-2.6-2.6S684.2,137.3,685.6,137.3z"
		/>
	<path class="st6" d="M705.5,139.9c0,1.4-1.2,2.6-2.6,2.6c-1.4,0-2.6-1.2-2.6-2.6c0-1.4,1.2-2.6,2.6-2.6
		C704.3,137.3,705.5,138.5,705.5,139.9z"/>
	<path class="st6" d="M642.2,145.6c0,1.4-1.2,2.6-2.6,2.6c-1.4,0-2.6-1.2-2.6-2.6c0-1.4,1.2-2.6,2.6-2.6
		C641,143.1,642.2,144.2,642.2,145.6z"/>
	<path class="st6" d="M651.1,148.2c-1.4,0-2.6-1.2-2.6-2.6c0-1.4,1.2-2.6,2.6-2.6c1.4,0,2.6,1.2,2.6,2.6
		C653.7,147,652.5,148.2,651.1,148.2z"/>
	<path class="st6" d="M662.6,143.1c1.4,0,2.6,1.1,2.6,2.6c0,1.4-1.1,2.6-2.6,2.6c-1.4,0-2.6-1.1-2.6-2.6
		C660,144.2,661.2,143.1,662.6,143.1z"/>
	<path class="st6" d="M676.7,145.6c0,1.4-1.2,2.6-2.6,2.6c-1.4,0-2.6-1.2-2.6-2.6c0-1.4,1.2-2.6,2.6-2.6
		C675.5,143.1,676.7,144.2,676.7,145.6z"/>
	<path class="st6" d="M642.2,151.4c0,1.4-1.1,2.6-2.6,2.6c-1.4,0-2.6-1.1-2.6-2.6c0-1.4,1.1-2.6,2.6-2.6
		C641,148.8,642.2,150,642.2,151.4z"/>
	<path class="st6" d="M668.3,148.8c1.4,0,2.6,1.1,2.6,2.5s-1.1,2.6-2.5,2.6s-2.6-1.1-2.6-2.5C665.8,150,666.9,148.8,668.3,148.8z"/>
	<path class="st6" d="M682.5,151.4c0,1.4-1.2,2.6-2.6,2.6c-1.4,0-2.6-1.2-2.6-2.6c0-1.4,1.2-2.6,2.6-2.6
		C681.3,148.8,682.4,150,682.5,151.4z"/>
	<path class="st6" d="M711.2,151.4c0,1.4-1.2,2.6-2.6,2.6c-1.4,0-2.6-1.2-2.6-2.6c0-1.4,1.2-2.6,2.6-2.6
		C710.1,148.8,711.2,150,711.2,151.4z"/>
	<path class="st6" d="M639.6,159.7c-1.4,0-2.6-1.2-2.6-2.6c0-1.4,1.2-2.6,2.6-2.6c1.4,0,2.6,1.2,2.6,2.6
		C642.2,158.5,641,159.7,639.6,159.7z"/>
	<path class="st6" d="M651.1,154.6c1.4,0,2.6,1.2,2.6,2.6c0,1.4-1.2,2.6-2.6,2.6c-1.4,0-2.6-1.2-2.6-2.6
		C648.5,155.7,649.7,154.6,651.1,154.6z"/>
	<path class="st6" d="M668.5,154.6c1.4,0.1,2.5,1.3,2.5,2.7c-0.1,1.4-1.3,2.5-2.7,2.5c-1.4-0.1-2.5-1.3-2.5-2.7
		C665.9,155.6,667.1,154.5,668.5,154.6z"/>
	<path class="st6" d="M682.5,157.2c0,1.4-1.2,2.6-2.6,2.6c-1.4,0-2.6-1.2-2.6-2.6c0-1.4,1.2-2.6,2.6-2.6
		C681.3,154.6,682.5,155.8,682.5,157.2z"/>
	<path class="st6" d="M685.6,154.6c1.4,0,2.6,1.2,2.6,2.6c0,1.4-1.2,2.6-2.6,2.6c-1.4,0-2.6-1.2-2.6-2.6
		C683,155.7,684.2,154.6,685.6,154.6z"/>
	<path class="st6" d="M699.7,157.1c0,1.4-1.1,2.6-2.6,2.6c-1.4,0-2.6-1.1-2.6-2.6c0-1.4,1.1-2.6,2.6-2.6
		C698.5,154.6,699.7,155.7,699.7,157.1z"/>
	<path class="st7" d="M691.3,68c1.4,0,2.8,0,4.2,0c2.6,0,4.5-1.9,4.5-4.4c0-2.8,0-5.6,0-8.4c0-2.6-1.8-4.4-4.4-4.4
		c-2.8,0-5.6,0-8.4,0c-2.6,0-4.4,1.8-4.4,4.4c0,2.8,0,5.6,0,8.4c0,2.5,1.9,4.4,4.5,4.4C688.6,68,690,68,691.3,68z"/>
	<path class="st5" d="M691.3,68c-1.4,0-2.7,0-4.1,0c-2.6,0-4.4-1.8-4.5-4.4c0-2.8,0-5.6,0-8.4c0-2.6,1.8-4.4,4.4-4.4
		c2.8,0,5.6,0,8.4,0c2.6,0,4.4,1.9,4.4,4.4c0,2.8,0,5.6,0,8.4c0,2.6-1.9,4.4-4.5,4.4C694.1,68,692.7,68,691.3,68z"/>
	<path class="st5" d="M610.9,68c-1.4,0-2.8,0-4.2,0c-2.5,0-4.4-1.8-4.4-4.3c0-2.9,0-5.7,0-8.6c0-2.5,1.9-4.3,4.4-4.3
		c2.8,0,5.6,0,8.4,0c2.6,0,4.4,1.9,4.4,4.5c0,2.8,0,5.5,0,8.3c0,2.6-1.9,4.5-4.5,4.5C613.6,68,612.2,68,610.9,68z"/>
	<path class="st6" d="M610.9,148.5c-1.4,0-2.7,0-4.1,0c-2.6,0-4.5-1.8-4.5-4.5c0-2.8,0-5.5,0-8.3c0-2.6,1.8-4.4,4.4-4.5
		c2.8,0,5.6,0,8.4,0c2.6,0,4.4,1.8,4.4,4.5c0,2.8,0,5.6,0,8.4c0,2.6-1.9,4.4-4.5,4.4C613.6,148.5,612.2,148.5,610.9,148.5z"/>
</g>
</svg>
