<?xml version="1.0" encoding="utf-8"?>
<!-- Generator: Adobe Illustrator 24.1.1, SVG Export Plug-In . SVG Version: 6.00 Build 0)  -->
<svg version="1.1" id="Layer_1" xmlns="http://www.w3.org/2000/svg" xmlns:xlink="http://www.w3.org/1999/xlink" x="0px" y="0px"
	 viewBox="0 0 629.9 420.6" style="enable-background:new 0 0 629.9 420.6;" xml:space="preserve">
<style type="text/css">
	.st0{fill:#D9ECF9;}
	.st1{fill:#D7F1FF;}
	.st2{fill:none;stroke:#B7D1FF;stroke-linejoin:round;}
	.st3{fill:#FFFFFF;stroke:#B7D1FF;stroke-linejoin:round;}
	.st4{fill:none;stroke:#B7D1FF;stroke-linejoin:round;stroke-dasharray:3,2;}
	.st5{fill:#FF5353;}
	.st6{fill:none;stroke:#FFFFFF;stroke-width:2;stroke-linejoin:round;}
	.st7{fill:#B3E0FF;}
	.st8{fill:#FFFFFF;}
	.st9{opacity:0.65;fill:#6695F2;enable-background:new    ;}
	.st10{fill:#FFFFFF;stroke:#498EF2;stroke-linejoin:round;}
	.st11{opacity:0.75;}
	.st12{opacity:0.55;fill:none;stroke:#B3E0FF;stroke-linejoin:round;enable-background:new    ;}
	.st13{fill:none;stroke:#B3E0FF;stroke-linejoin:round;}
	.st14{fill:#498EF2;}
	.st15{fill:#295CCE;}
	.st16{clip-path:url(#SVGID_2_);}
	.st17{fill:#103BB2;}
	.st18{fill:none;stroke:#498EF2;stroke-linejoin:round;}
	.st19{opacity:0.45;fill:#89B5F4;enable-background:new    ;}
	.st20{opacity:0.75;fill:none;stroke:#E0EBFC;stroke-linejoin:round;enable-background:new    ;}
	.st21{opacity:0.45;}
	.st22{opacity:0.75;fill:#89B5F4;enable-background:new    ;}
	.st23{fill:#F9D1BB;}
	.st24{fill-rule:evenodd;clip-rule:evenodd;fill:#ED910C;}
	.st25{opacity:0.55;fill:#89B5F4;enable-background:new    ;}
	.st26{fill:#97D3FC;}
	.st27{fill:#FFE292;}
	.st28{clip-path:url(#SVGID_4_);}
	.st29{fill:#2762CC;}
	.st30{fill:#2E7EFA;}
	.st31{fill:#22252D;}
	.st32{fill:none;stroke:#002849;stroke-linejoin:round;}
	.st33{fill:none;stroke:#BF0000;stroke-linejoin:round;}
	.st34{fill:none;stroke:#EA997D;stroke-width:0.75;stroke-miterlimit:10;}
	.st35{fill:#FFAC06;}
	.st36{fill-rule:evenodd;clip-rule:evenodd;fill:#162F7F;}
	.st37{fill-rule:evenodd;clip-rule:evenodd;fill:#103BB2;}
	.st38{fill:none;stroke:#025FBC;stroke-linejoin:round;}
	.st39{fill:none;stroke:#4378ED;stroke-linejoin:round;}
	.st40{fill-rule:evenodd;clip-rule:evenodd;fill:#FFAC06;}
	.st41{fill:none;stroke:#BC4D26;stroke-linejoin:round;}
	.st42{fill-rule:evenodd;clip-rule:evenodd;fill:#F9D1BB;}
	.st43{fill-rule:evenodd;clip-rule:evenodd;fill:#22252D;}
</style>
<g>
	<path class="st0" d="M42.1,141.7c0.4-3.3,0.1-6.7-1-9.8l-4.4,1.1c-0.5-1.4-1.2-2.7-2.1-3.9l3.3-3.1c-2-2.6-4.7-4.8-7.7-6.2
		l-2.3,3.9c-1.4-0.6-2.8-1-4.3-1.3l0.2-4.5c-3.3-0.4-6.7-0.1-9.8,1l1.1,4.4c-1.4,0.5-2.7,1.2-3.9,2.1l-3.1-3.3
		c-2.6,2-4.8,4.7-6.2,7.7l3.9,2.3c-0.6,1.4-1,2.8-1.3,4.3l-4.5-0.2c-0.4,3.3-0.1,6.7,1,9.8l4.4-1.1c0.5,1.4,1.2,2.7,2.1,3.9
		l-3.3,3.1c2,2.6,4.7,4.8,7.7,6.2l2.3-3.9c1.4,0.6,2.8,1,4.3,1.3l-0.2,4.5c3.3,0.4,6.7,0.1,9.8-1l-1.1-4.4c1.4-0.5,2.7-1.2,3.9-2.1
		l3.1,3.3c2.6-2,4.8-4.7,6.2-7.7l-3.9-2.3c0.6-1.4,1-2.8,1.3-4.3L42.1,141.7z M22.2,149.1c-5.6,0.6-10.6-3.5-11.2-9.1
		c-0.6-5.6,3.5-10.6,9.1-11.2s10.6,3.5,11.2,9.1c0,0,0,0,0,0C31.9,143.5,27.8,148.5,22.2,149.1z M21.9,146.4
		c-4.1,0.4-7.8-2.5-8.2-6.6s2.5-7.8,6.6-8.2c4.1-0.4,7.8,2.5,8.2,6.6C29,142.3,26.1,146,21.9,146.4z"/>
	<path class="st1" d="M50.3,304c0,3.8-3.1,6.9-6.9,6.9s-6.9-3.1-6.9-6.9c0-3.8,3.1-6.9,6.9-6.9C47.2,297.1,50.3,300.2,50.3,304
		C50.3,304,50.3,304,50.3,304z"/>
	<path class="st2" d="M197.9,18.7c0,3.8-3.1,6.9-6.9,6.9s-6.9-3.1-6.9-6.9c0-3.8,3.1-6.9,6.9-6.9C194.8,11.8,197.9,14.9,197.9,18.7
		C197.9,18.7,197.9,18.7,197.9,18.7z"/>
	<path class="st3" d="M477.6,71.6c0-0.7,0.1-1.4,0.2-2.2c0.8-6.5,5.5-5.9,8.5-5.7c3,0.2,6.6,0.3,8-2.7c0.6-1.3,0.6-2.9,1-4.3
		c0.9-3,3.6-5,6.7-5.1c2.9,0,5.5,1.5,7.9,3.4c1.2,1,2.6,2.2,4,1.8c1-0.4,1.7-1.1,2.2-2c3.4-5.2,3.4-12.7,7.1-17.5
		c4.1-5.4,11.7-5.5,16.9-1.6s8.1,10.8,9.5,17.8c0.4,2.3,0.8,4.8,2.3,6.3c2.1,2.2,5.4,1.5,8.2,1.2c3.3-0.3,6.8,0.2,9.5,2.4
		c2.3,2.1,3.5,5.1,3.3,8.2H477.6z"/>
	<path class="st3" d="M60,39.3h81.9c-1.1-3.4-3.5-6.2-6.7-7.8c-4.6-2-6.2,0.9-8.1-1.1c-0.9-1-0.1-9.7-7.4-9.7
		c-7.2,0-8.8,4.2-12.1,2.5c-2.9-1.5-2.8-7.3-5.8-12.2c-2.9-4.8-9.9-7.7-14.7-5.2c-8.8,4.6-7.6,11.8-10.5,14.2
		c-2.8,2.4-9.3-5.9-16.6,3C55,29.3,60,39.3,60,39.3z"/>
	<path class="st4" d="M445,319h116.1c16.9,0,30.5-13.7,30.5-30.5v0c0-16.9-13.7-30.5-30.5-30.5l0,0H51.5
		c-24.9,0-45.2-20.2-45.2-45.2v0c0-24.9,20.2-45.2,45.2-45.2h528.4c17.7,0,32-14.3,32-32c0,0,0,0,0,0l0,0c0-17.7-14.3-32-32-32
		c0,0,0,0,0,0H253.1c-21.5,0-39-17.4-39-39l0,0c0-21.5,17.4-39,39-39h131.3"/>
	<circle class="st5" cx="51" cy="162.6" r="13.3"/>
	<polyline class="st6" points="43.7,162 49.2,168 58.4,157.3 	"/>
	<circle class="st5" cx="564" cy="100" r="13.3"/>
	<line class="st6" x1="558.8" y1="106.1" x2="569.2" y2="94"/>
	<line class="st6" x1="557.9" y1="94.8" x2="570" y2="105.2"/>
	<path class="st7" d="M583.7,123.6h41.3c2.7,0,4.8,2.2,4.8,4.8v41.3c0,2.7-2.2,4.8-4.8,4.8h-41.3c-2.7,0-4.8-2.2-4.8-4.8v-41.3
		C578.9,125.8,581.1,123.6,583.7,123.6z"/>
	<polygon class="st8" points="599.9,138.2 587.5,162 612.2,162 	"/>
	<polygon class="st8" points="613,146 610,151.8 615.3,162 621.3,162 	"/>
	<path class="st8" d="M619.6,141.6c0,1.4-1.2,2.6-2.6,2.6c-1.4,0-2.6-1.2-2.6-2.6c0-1.4,1.2-2.6,2.6-2.6
		C618.4,139,619.6,140.2,619.6,141.6z"/>
	<path class="st7" d="M374.8,3.7h24.4c1.6,0,2.8,1.3,2.8,2.8v24.4c0,1.6-1.3,2.8-2.8,2.8h-24.4c-1.6,0-2.8-1.3-2.8-2.8V6.5
		C371.9,5,373.2,3.7,374.8,3.7z"/>
	<polygon class="st8" points="395.5,20.1 387,9.5 378.4,20.1 383.3,20.1 383.3,27.9 390.7,27.9 390.7,20.1 	"/>
	<path class="st7" d="M46.6,201.6h34.3c2.2,0,4,1.8,4,4V240c0,2.2-1.8,4-4,4H46.6c-2.2,0-4-1.8-4-4v-34.3
		C42.6,203.4,44.4,201.6,46.6,201.6z"/>
	<polygon class="st8" points="75.8,224.8 63.8,209.8 51.7,224.8 58.5,224.8 58.5,235.8 69,235.8 69,224.8 	"/>
	<path class="st1" d="M622,221.6c0,2.7-2.2,5-5,5c-2.7,0-5-2.2-5-5c0-2.7,2.2-5,5-5C619.8,216.6,622,218.8,622,221.6z"/>
	<path class="st1" d="M71.6,59.1c0,2.7-2.2,5-5,5s-5-2.2-5-5c0-2.7,2.2-5,5-5C69.4,54.1,71.6,56.4,71.6,59.1z"/>
	<line class="st2" x1="45.6" y1="191.4" x2="60.4" y2="191.4"/>
	<line class="st2" x1="32.9" y1="191.4" x2="40.8" y2="191.4"/>
	<line class="st2" x1="465.9" y1="35.3" x2="480.7" y2="35.3"/>
	<line class="st2" x1="446.1" y1="361.9" x2="460.9" y2="361.9"/>
	<line class="st2" x1="453.1" y1="35.3" x2="461.1" y2="35.3"/>
	<line class="st2" x1="150.3" y1="50.3" x2="158.2" y2="50.3"/>
	<line class="st2" x1="22.5" y1="281.4" x2="36.5" y2="281.4"/>
	<line class="st2" x1="593.9" y1="248.6" x2="601.8" y2="248.6"/>
	<line class="st2" x1="22.5" y1="83.1" x2="22.5" y2="89"/>
	<line class="st2" x1="25.5" y1="86" x2="19.5" y2="86"/>
	<line class="st2" x1="66.7" y1="327.2" x2="66.7" y2="333.1"/>
	<line class="st2" x1="69.6" y1="330.2" x2="63.7" y2="330.2"/>
	<line class="st2" x1="342.9" y1="0" x2="342.9" y2="5.9"/>
	<line class="st2" x1="345.9" y1="3" x2="340" y2="3"/>
	<line class="st2" x1="576.3" y1="192.3" x2="576.3" y2="198.2"/>
	<line class="st2" x1="579.3" y1="195.2" x2="573.4" y2="195.2"/>
	<line class="st2" x1="590.9" y1="342.7" x2="590.9" y2="348.6"/>
	<line class="st2" x1="593.9" y1="345.6" x2="588" y2="345.6"/>
	<line class="st2" x1="601.4" y1="83.1" x2="601.4" y2="89"/>
	<line class="st2" x1="604.4" y1="86" x2="598.5" y2="86"/>
	<path class="st2" d="M610,324.5c0,1.3-1.1,2.4-2.4,2.4s-2.4-1.1-2.4-2.4c0-1.3,1.1-2.4,2.4-2.4S610,323.2,610,324.5L610,324.5z"/>
	<path class="st2" d="M198.2,363.2c0,1.3-1.1,2.4-2.4,2.4c-1.3,0-2.4-1.1-2.4-2.4s1.1-2.4,2.4-2.4c0,0,0,0,0,0
		C197.2,360.8,198.2,361.9,198.2,363.2z"/>
	<path class="st2" d="M428.2,29.2c0,1.3-1.1,2.4-2.4,2.4c-1.3,0-2.4-1.1-2.4-2.4c0-1.3,1.1-2.4,2.4-2.4
		C427.2,26.8,428.2,27.9,428.2,29.2z"/>
	<path class="st0" d="M101.7,111.3c-1.5-4.3-4-8.1-7.2-11.2l-4.6,4c-1.5-1.4-3.2-2.5-5-3.4L87,95C83,93,78.5,92,74,92.1l-0.4,6.1
		c-2,0.1-4,0.5-5.9,1.1l-2.5-5.6c-4.3,1.5-8.1,4-11.2,7.2l4,4.6c-1.4,1.5-2.5,3.2-3.4,5l-5.7-2.1c-2,4.1-2.9,8.6-2.8,13.1l6.1,0.4
		c0.1,2,0.5,4,1.1,5.9l-5.6,2.5c1.5,4.3,4,8.1,7.3,11.2l4.6-4c1.5,1.4,3.2,2.5,5,3.4l-2.1,5.7c4.1,2,8.6,2.9,13.1,2.8l0.4-6.1
		c2-0.1,4-0.5,5.9-1.1l2.5,5.6c4.3-1.5,8.1-4,11.2-7.3l-4-4.6c1.4-1.5,2.5-3.2,3.4-5l5.7,2.1c2-4.1,2.9-8.6,2.8-13.1l-6.1-0.4
		c-0.1-2-0.5-4-1.1-5.9L101.7,111.3z M82.1,132.5c-6.4,4.1-15,2.3-19.2-4.1c-4.1-6.4-2.3-15,4.1-19.2c6.4-4.1,15-2.3,19.2,4.1
		C90.4,119.8,88.5,128.4,82.1,132.5L82.1,132.5z M80.1,129.4c-4.7,3-11,1.7-14-3c-3-4.7-1.7-11,3-14c4.7-3,11-1.7,14,3
		C86.2,120.1,84.8,126.4,80.1,129.4L80.1,129.4z"/>
	<path class="st0" d="M435,362.7c0.5-3.5,0.1-7.1-1.1-10.4l-4.6,1.2c-0.6-1.5-1.3-2.9-2.3-4.1l3.5-3.3c-2.2-2.8-4.9-5-8.1-6.6
		l-2.4,4.1c-1.4-0.6-3-1.1-4.5-1.3l0.2-4.8c-3.5-0.5-7.1-0.1-10.4,1.1l1.2,4.6c-1.5,0.6-2.9,1.3-4.1,2.3L399,342
		c-2.8,2.2-5,4.9-6.6,8.1l4.1,2.4c-0.6,1.4-1.1,3-1.3,4.5l-4.8-0.2c-0.5,3.5-0.1,7.1,1.1,10.4l4.6-1.2c0.6,1.5,1.3,2.9,2.3,4.1
		l-3.5,3.3c2.2,2.8,4.9,5,8.1,6.6l2.4-4.1c1.4,0.6,3,1.1,4.5,1.3l-0.2,4.8c3.5,0.5,7.1,0.1,10.4-1.1l-1.2-4.6
		c1.5-0.6,2.9-1.3,4.1-2.3l3.3,3.5c2.8-2.2,5-4.9,6.6-8.1l-4.1-2.4c0.6-1.4,1.1-3,1.3-4.5L435,362.7z M413.9,370.6
		c-5.9,0.6-11.3-3.7-11.9-9.6c-0.6-5.9,3.7-11.3,9.6-11.9c5.9-0.6,11.3,3.7,11.9,9.6C424.1,364.6,419.8,370,413.9,370.6L413.9,370.6
		z M413.6,367.7c-4.4,0.5-8.3-2.7-8.7-7.1s2.7-8.3,7.1-8.7c4.4-0.5,8.3,2.7,8.7,7.1C421.1,363.4,417.9,367.3,413.6,367.7z"/>
	<path class="st7" d="M369,328.1H258.8c0,0,4.6,70.2-17.2,70.2h144.7C364.5,398.3,369,328.1,369,328.1z"/>
	<path class="st9" d="M257.6,370.3l111.1-22.5c-0.2-11.1,0.4-19.7,0.4-19.7H258.8C258.8,328.1,260.3,350.8,257.6,370.3z"/>
	<path class="st7" d="M107.8,59.1H520c8.3,0,15,6.7,15,15v260.1c0,8.3-6.7,15-15,15H107.8c-8.3,0-15-6.7-15-15V74.1
		C92.8,65.8,99.6,59.1,107.8,59.1C107.8,59.1,107.8,59.1,107.8,59.1z"/>
	<path class="st10" d="M111.9,69.4H516c3.7,0,6.7,3,6.7,6.7v256.3c0,3.7-3,6.7-6.7,6.7H111.9c-3.7,0-6.7-3-6.7-6.7V76
		C105.2,72.4,108.2,69.4,111.9,69.4z"/>
	<g class="st11">
		<path class="st12" d="M136,136.7h53.6c3.5,0,6.3,2.8,6.3,6.3v53.6c0,3.5-2.8,6.3-6.3,6.3H136c-3.5,0-6.3-2.8-6.3-6.3V143
			C129.7,139.5,132.5,136.7,136,136.7z"/>
		<polygon class="st13" points="156.9,155.7 140.9,186.6 172.8,186.6 		"/>
		<polygon class="st13" points="173.9,165.8 170.1,173.3 177,186.6 184.6,186.6 		"/>
		<path class="st13" d="M182.5,160.1c0,1.8-1.5,3.3-3.3,3.3s-3.3-1.5-3.3-3.3c0-1.8,1.5-3.3,3.3-3.3
			C181,156.7,182.5,158.2,182.5,160.1z"/>
		<path class="st12" d="M237.1,136.7h53.6c3.5,0,6.3,2.8,6.3,6.3v53.6c0,3.5-2.8,6.3-6.3,6.3h-53.6c-3.5,0-6.3-2.8-6.3-6.3V143
			C230.9,139.5,233.7,136.7,237.1,136.7z"/>
		<polygon class="st13" points="258,155.7 242.1,186.6 274,186.6 		"/>
		<polygon class="st13" points="275.1,165.8 271.2,173.3 278.1,186.6 285.8,186.6 		"/>
		<path class="st13" d="M283.6,160.1c0,1.8-1.5,3.3-3.3,3.3c-1.8,0-3.3-1.5-3.3-3.3c0-1.8,1.5-3.3,3.3-3.3
			C282.1,156.7,283.6,158.2,283.6,160.1z"/>
		<path class="st12" d="M338.3,136.7h53.6c3.5,0,6.3,2.8,6.3,6.3v53.6c0,3.5-2.8,6.3-6.3,6.3h-53.6c-3.5,0-6.3-2.8-6.3-6.3V143
			C332,139.5,334.8,136.7,338.3,136.7z"/>
		<polygon class="st13" points="359.2,155.7 343.2,186.6 375.1,186.6 		"/>
		<polygon class="st13" points="376.2,165.8 372.4,173.3 379.3,186.6 386.9,186.6 		"/>
		<path class="st13" d="M384.8,160.1c0,1.8-1.5,3.3-3.3,3.3c-1.8,0-3.3-1.5-3.3-3.3c0-1.8,1.5-3.3,3.3-3.3
			C383.3,156.7,384.8,158.2,384.8,160.1z"/>
		<path class="st12" d="M439.4,136.7H493c3.5,0,6.3,2.8,6.3,6.3v53.6c0,3.5-2.8,6.3-6.3,6.3h-53.6c-3.5,0-6.3-2.8-6.3-6.3V143
			C433.2,139.5,436,136.7,439.4,136.7z"/>
		<polygon class="st13" points="460.3,155.7 444.4,186.6 476.3,186.6 		"/>
		<polygon class="st13" points="477.4,165.8 473.5,173.3 480.4,186.6 488.1,186.6 		"/>
		<path class="st13" d="M485.9,160.1c0,1.8-1.5,3.3-3.3,3.3c-1.8,0-3.3-1.5-3.3-3.3c0-1.8,1.5-3.3,3.3-3.3
			C484.4,156.7,485.9,158.2,485.9,160.1z"/>
	</g>
	<g class="st11">
		<path class="st12" d="M136,222.2h53.6c3.5,0,6.3,2.8,6.3,6.3v53.6c0,3.5-2.8,6.3-6.3,6.3H136c-3.5,0-6.3-2.8-6.3-6.3v-53.6
			C129.7,225,132.5,222.2,136,222.2z"/>
		<polygon class="st13" points="156.9,241.2 140.9,272 172.8,272 		"/>
		<polygon class="st13" points="173.9,251.3 170.1,258.7 177,272 184.6,272 		"/>
		<path class="st13" d="M182.5,245.5c0,1.8-1.5,3.3-3.3,3.3s-3.3-1.5-3.3-3.3c0-1.8,1.5-3.3,3.3-3.3
			C181,242.2,182.5,243.7,182.5,245.5C182.5,245.5,182.5,245.5,182.5,245.5z"/>
		<path class="st12" d="M237.1,222.2h53.6c3.5,0,6.3,2.8,6.3,6.3v53.6c0,3.5-2.8,6.3-6.3,6.3h-53.6c-3.5,0-6.3-2.8-6.3-6.3v-53.6
			C230.9,225,233.7,222.2,237.1,222.2z"/>
		<polygon class="st13" points="258,241.2 242.1,272 274,272 		"/>
		<polygon class="st13" points="275.1,251.3 271.2,258.7 278.1,272 285.8,272 		"/>
		<path class="st13" d="M283.6,245.5c0,1.8-1.5,3.3-3.3,3.3c-1.8,0-3.3-1.5-3.3-3.3c0-1.8,1.5-3.3,3.3-3.3
			C282.1,242.2,283.6,243.7,283.6,245.5C283.6,245.5,283.6,245.5,283.6,245.5z"/>
		<path class="st12" d="M338.3,222.2h53.6c3.5,0,6.3,2.8,6.3,6.3v53.6c0,3.5-2.8,6.3-6.3,6.3h-53.6c-3.5,0-6.3-2.8-6.3-6.3v-53.6
			C332,225,334.8,222.2,338.3,222.2z"/>
		<polygon class="st13" points="359.2,241.2 343.2,272 375.1,272 		"/>
		<polygon class="st13" points="376.2,251.3 372.4,258.7 379.3,272 386.9,272 		"/>
		<path class="st13" d="M384.8,245.5c0,1.8-1.5,3.3-3.3,3.3c-1.8,0-3.3-1.5-3.3-3.3c0-1.8,1.5-3.3,3.3-3.3
			C383.3,242.2,384.8,243.7,384.8,245.5z"/>
		<path class="st12" d="M439.4,222.2H493c3.5,0,6.3,2.8,6.3,6.3v53.6c0,3.5-2.8,6.3-6.3,6.3h-53.6c-3.5,0-6.3-2.8-6.3-6.3v-53.6
			C433.2,225,436,222.2,439.4,222.2z"/>
		<polygon class="st13" points="460.3,241.2 444.4,272 476.3,272 		"/>
		<polygon class="st13" points="477.4,251.3 473.5,258.7 480.4,272 488.1,272 		"/>
		<path class="st13" d="M485.9,245.5c0,1.8-1.5,3.3-3.3,3.3c-1.8,0-3.3-1.5-3.3-3.3c0-1.8,1.5-3.3,3.3-3.3
			C484.4,242.2,485.9,243.7,485.9,245.5L485.9,245.5z"/>
	</g>
	<path class="st8" d="M230.9,319.1c-2.7,0-4.8-2.2-4.8-4.8c0-2.7,2.2-4.8,4.8-4.8l0,0h167.3c2.7,0,4.8,2.1,4.8,4.8s-2.1,4.8-4.8,4.8
		c0,0,0,0,0,0L230.9,319.1z"/>
	<path class="st14" d="M398.1,310c2.4,0,4.3,1.9,4.3,4.3s-1.9,4.3-4.3,4.3l0,0H230.9c-2.4,0-4.3-1.9-4.3-4.3s1.9-4.3,4.3-4.3H398.1
		 M398.1,309H230.9c-2.9,0-5.3,2.4-5.3,5.3s2.4,5.3,5.3,5.3h167.3c2.9,0,5.3-2.4,5.3-5.3S401.1,309,398.1,309z"/>
	<path class="st15" d="M348.5,310H230.9c-2.4,0-4.3,1.9-4.3,4.3s1.9,4.3,4.3,4.3h117.6L348.5,310z"/>
	<g>
		<defs>
			<path id="SVGID_1_" d="M348.5,310H230.9c-2.4,0-4.3,1.9-4.3,4.3s1.9,4.3,4.3,4.3h117.6L348.5,310z"/>
		</defs>
		<clipPath id="SVGID_2_">
			<use xlink:href="#SVGID_1_"  style="overflow:visible;"/>
		</clipPath>
		<g class="st16">
			
				<rect x="213.2" y="311.3" transform="matrix(0.7071 -0.7071 0.7071 0.7071 -153.9928 255.9148)" class="st14" width="37.4" height="5"/>
			
				<rect x="226.4" y="311.3" transform="matrix(0.7071 -0.7071 0.7071 0.7071 -150.1436 265.2069)" class="st14" width="37.4" height="5"/>
			
				<rect x="239.5" y="311.3" transform="matrix(0.7071 -0.7071 0.7071 0.7071 -146.2945 274.4991)" class="st14" width="37.4" height="5"/>
			
				<rect x="252.6" y="311.3" transform="matrix(0.7071 -0.7071 0.7071 0.7071 -142.4454 283.7918)" class="st14" width="37.4" height="5"/>
			
				<rect x="265.8" y="311.3" transform="matrix(0.7071 -0.7071 0.7071 0.7071 -138.5963 293.0842)" class="st14" width="37.4" height="5"/>
			
				<rect x="278.9" y="311.3" transform="matrix(0.7071 -0.7071 0.7071 0.7071 -134.7471 302.3768)" class="st14" width="37.4" height="5"/>
			
				<rect x="292.1" y="311.3" transform="matrix(0.7071 -0.7071 0.7071 0.7071 -130.898 311.6627)" class="st14" width="37.4" height="5"/>
			
				<rect x="305.2" y="311.3" transform="matrix(0.7071 -0.7071 0.7071 0.7071 -127.049 320.955)" class="st14" width="37.4" height="5"/>
			
				<rect x="318.3" y="311.3" transform="matrix(0.7071 -0.7071 0.7071 0.7071 -123.2 330.2473)" class="st14" width="37.4" height="5"/>
			
				<rect x="331.5" y="311.3" transform="matrix(0.7071 -0.7071 0.7071 0.7071 -119.3511 339.5396)" class="st14" width="37.4" height="5"/>
			
				<rect x="344.6" y="311.3" transform="matrix(0.7071 -0.7071 0.7071 0.7071 -115.5019 348.8326)" class="st17" width="37.4" height="5"/>
			
				<rect x="357.8" y="311.3" transform="matrix(0.7071 -0.7071 0.7071 0.7071 -111.6524 358.1311)" class="st17" width="37.4" height="5"/>
			
				<rect x="370.9" y="311.3" transform="matrix(0.7071 -0.7071 0.7071 0.7071 -107.8032 367.4238)" class="st17" width="37.4" height="5"/>
		</g>
	</g>
	<line class="st18" x1="105.2" y1="102.4" x2="522.6" y2="102.4"/>
	<path class="st19" d="M472.5,92.8H185c-3.9,0-7.1-3.2-7.1-7.1c0,0,0,0,0,0l0,0c0-3.9,3.2-7.1,7.1-7.1h287.6c3.9,0,7.1,3.2,7.1,7.1
		l0,0C479.6,89.6,476.4,92.8,472.5,92.8z"/>
	<path class="st18" d="M125.7,86c0,2.1-1.7,3.8-3.8,3.8s-3.8-1.7-3.8-3.8c0-2.1,1.7-3.8,3.8-3.8C124,82.2,125.7,83.9,125.7,86
		C125.7,86,125.7,86,125.7,86z"/>
	<path class="st18" d="M143.5,86c0,2.1-1.7,3.8-3.8,3.8c-2.1,0-3.8-1.7-3.8-3.8c0-2.1,1.7-3.8,3.8-3.8c0,0,0,0,0,0
		C141.8,82.2,143.5,83.9,143.5,86C143.5,86,143.5,86,143.5,86z"/>
	<path class="st18" d="M161.3,86c0,2.1-1.7,3.8-3.8,3.8s-3.8-1.7-3.8-3.8c0-2.1,1.7-3.8,3.8-3.8C159.5,82.2,161.3,83.9,161.3,86
		C161.3,86,161.3,86,161.3,86z"/>
	<rect x="221.9" y="396.3" class="st7" width="184" height="10.2"/>
	<line class="st20" x1="440.9" y1="116.3" x2="457.8" y2="116.3"/>
	<line class="st20" x1="465.9" y1="116.3" x2="482.8" y2="116.3"/>
	<g class="st21">
		<rect x="488.9" y="111.7" class="st22" width="2.3" height="2.3"/>
		<rect x="492.1" y="111.7" class="st22" width="2.3" height="2.3"/>
		<rect x="495.2" y="111.7" class="st22" width="2.3" height="2.3"/>
		<rect x="488.9" y="115.1" class="st22" width="2.3" height="2.3"/>
		<rect x="492.1" y="115.1" class="st22" width="2.3" height="2.3"/>
		<rect x="495.2" y="115.1" class="st22" width="2.3" height="2.3"/>
		<rect x="488.9" y="118.6" class="st22" width="2.3" height="2.3"/>
		<rect x="492.1" y="118.6" class="st22" width="2.3" height="2.3"/>
		<rect x="495.2" y="118.6" class="st22" width="2.3" height="2.3"/>
	</g>
	<path class="st19" d="M512.7,116.3c0,3.2-2.6,5.8-5.8,5.8c-3.2,0-5.8-2.6-5.8-5.8c0-3.2,2.6-5.8,5.8-5.8l0,0
		C510.1,110.5,512.7,113.1,512.7,116.3z"/>
	<path class="st14" d="M512.6,78.5c0,0.8-0.7,1.5-1.5,1.5c-0.8,0-1.5-0.7-1.5-1.5s0.7-1.5,1.5-1.5h0C511.9,77,512.6,77.7,512.6,78.5
		z"/>
	<path class="st14" d="M512.6,85.7c0,0.8-0.7,1.5-1.5,1.5c-0.8,0-1.5-0.7-1.5-1.5s0.7-1.5,1.5-1.5h0
		C511.9,84.2,512.6,84.8,512.6,85.7z"/>
	<path class="st14" d="M512.6,92.8c0,0.8-0.7,1.5-1.5,1.5s-1.5-0.7-1.5-1.5s0.7-1.5,1.5-1.5h0C511.9,91.3,512.6,92,512.6,92.8
		C512.6,92.8,512.6,92.8,512.6,92.8z"/>
	<line class="st18" x1="381.3" y1="396.9" x2="287.1" y2="396.9"/>
	<line class="st18" x1="276.5" y1="396.9" x2="245.8" y2="396.9"/>
	<path class="st23" d="M186,222.3c3.3-1,12.2-5.2,12.7-4.7c0.5,0.5-2.6,2.1-2.2,2.4c0.5,0.3,5.5-1.8,5.9-1.2
		c0.5,0.8-4.7,2.7-4.7,2.7s5.8-1.8,6.1-0.9c0.2,0.6-4.2,2.2-5.8,3c1.9-0.7,5-1.4,5.1-0.7c0.1,0.6-2.8,1.8-5.1,2.8
		c1.4-0.5,4.1-1.2,4.3-0.7c0.2,0.6-6.9,3.8-13.6,6.7"/>
	<path class="st24" d="M115.2,201.8c0,0-1.6,41.7,20.5,51.1c19.9,8.5,57.4-8.8,57.4-8.8l-4.9-23.3c0,0-29.3,12.3-40,6.9
		c-7-3.6-10.5-30-10.5-30"/>
	<path class="st23" d="M446.1,226.7c-3.4,0.3-13.3-0.3-13.6,0.4s3.2,0.9,2.9,1.4c-0.3,0.5-5.8,0.4-5.9,1.1c-0.1,1,5.4,0.8,5.4,0.8
		s-6.1,0.5-6,1.4c0.1,0.6,4.8,0.4,6.5,0.6c-2,0.1-5.1,0.6-5,1.2c0.1,0.6,3.3,0.6,5.7,0.7c-1.5,0.1-4.3,0.4-4.2,1
		c0.1,0.6,7.8,1,15.1,1.1"/>
	<path class="st5" d="M523.4,192.6c-13.2,0-30.8,18.6-34.3,20.3c-7.5,3.5-21.7,11.2-44.1,13.5l2.7,21.6c0,0,53.1-3,76.5-30.4
		L523.4,192.6z"/>
	<path class="st25" d="M451,229.9V54.5H178v243h221.1c12.3,22.6,40.6,31,63.2,18.7c22.6-12.3,31-40.6,18.7-63.2
		C474.7,241.4,463.8,233,451,229.9L451,229.9z"/>
	<rect x="178" y="46.1" class="st10" width="273.1" height="243"/>
	<path class="st26" d="M191,58.6H438c0.3,0,0.5,0.2,0.5,0.5v217c0,0.3-0.2,0.5-0.5,0.5H191c-0.3,0-0.5-0.2-0.5-0.5v-217
		C190.5,58.8,190.7,58.6,191,58.6z"/>
	<path class="st14" d="M438,59.1v217H191v-217H438 M438,58.1H191c-0.6,0-1,0.4-1,1v217c0,0.6,0.4,1,1,1H438c0.6,0,1-0.4,1-1v-217
		C439,58.5,438.6,58.1,438,58.1z"/>
	<circle class="st27" cx="354.9" cy="102.4" r="22.6"/>
	<g>
		<defs>
			<rect id="SVGID_3_" x="191" y="59.1" width="247.1" height="217"/>
		</defs>
		<clipPath id="SVGID_4_">
			<use xlink:href="#SVGID_3_"  style="overflow:visible;"/>
		</clipPath>
		<g class="st28">
			<polygon class="st29" points="269.6,310.3 389,151.7 494.6,310.3 			"/>
			<polygon class="st30" points="126.6,314.8 277.4,114.5 410.7,314.8 			"/>
		</g>
	</g>
	<circle class="st26" cx="440" cy="266.8" r="44.1"/>
	<path class="st8" d="M440,225.2c23,0,41.6,18.6,41.6,41.6S463,308.4,440,308.4c-23,0-41.6-18.6-41.6-41.6l0,0
		C398.4,243.8,417,225.2,440,225.2 M440,220.2c-25.7,0-46.6,20.9-46.6,46.6c0,25.7,20.9,46.6,46.6,46.6s46.6-20.9,46.6-46.6l0,0
		C486.6,241.1,465.7,220.3,440,220.2z"/>
	<polygon class="st8" points="465.3,271 440.1,239.6 414.7,271 429.1,271 429.1,294 451.1,294 451.1,271 	"/>
	<path class="st31" d="M524.5,164.8c-2.9,0.4-5.5,1.5-7.1,4c-0.8,1.5-1.4,3-1.8,4.7c-0.4,1.7-0.4,3.4-0.9,5c-1,3.4-2.3,6.7-3.8,9.8
		c5.6,3.4,15.4,2.2,21.9,0.7"/>
	<path class="st31" d="M545.9,182.2c-1.7-3.4-3.1-7-4.5-10.6c-0.6-2-1.6-3.9-3-5.5c-0.8-0.9-2-1.4-3.2-1.3l-9.1,25.2
		c3.8,0.7,19.7-0.7,22.5-4C547.4,185.1,546.5,183.7,545.9,182.2z"/>
	<path class="st23" d="M503,330.8c-4.8,13.5-4.3,74.5-4.3,74.5l-10.5,6.6c0,0,28.8,1.6,29.7,0.7s-1.2-7.4-1.2-7.4
		s9.6-34.4,11.4-44.9c1.2-7.4,3.4-28.3,3.4-28.3S505.4,324.1,503,330.8z"/>
	<path class="st31" d="M514.3,412.5l4.3-4.2l-0.6-2.2l-6.6,6.4h-3.2l-11.2-5.6l-12.2,7.6c-0.8,0.5-1,1.5-0.5,2.3
		c0.3,0.5,0.8,0.8,1.4,0.8h16.3l5.2-3.6h1.5v3.6h10.6v-5L514.3,412.5z"/>
	<path class="st23" d="M543.9,322.7c-4.8,13.5,21.1,82.7,21.1,82.7l-10.5,6.6c0,0,28.8,1.6,29.7,0.7s-1.2-7.4-1.2-7.4
		s-3.9-47.5-5.1-54.1c-3-16.6-7.5-26.8-7.5-26.8S546.3,315.9,543.9,322.7z"/>
	<path class="st31" d="M580.6,412.5l4.3-4.2l-0.6-2.2l-6.6,6.4h-3.2l-11.2-5.6l-12.2,7.6c-0.8,0.5-1,1.5-0.5,2.3
		c0.3,0.5,0.8,0.8,1.4,0.8h16.3l5.2-3.6h1.5v3.6h10.6v-5L580.6,412.5z"/>
	<path class="st17" d="M560.4,257.3c1.2,2.3,2.1,4.7,2.9,7.2c14.7,17,14,77.1,14,77.1c-12.3,4.4-25.4,6.3-38.5,5.8
		c-24.2-0.8-37.5-4.9-37.5-4.9s4.1-77.5,11-87.8C519.2,244.5,560.4,257.3,560.4,257.3z"/>
	<path class="st32" d="M547.7,264.1c1.2,7.9,14.6,9.1,14.6,9.1"/>
	<path class="st32" d="M555.1,261.6c16.1,14,17.8,80.9,17.8,80.9"/>
	<path class="st23" d="M487.5,249.6c-3.5,0.3-13.5-0.3-13.8,0.4s3.3,1,3,1.4s-5.9,0.4-6,1.1c-0.1,1,5.5,0.8,5.5,0.8
		s-6.2,0.5-6.1,1.4c0.1,0.6,3.8,0.4,5.6,0.6c-2,0.1-4.2,0.6-4.1,1.3c0.1,0.6,3.3,0.6,5.8,0.7c-1.6,0.1-4.4,0.4-4.3,1
		c0.1,0.6,7.9,1,15.4,1.1"/>
	<path class="st5" d="M515.8,198.9c-10,24.7-8.3,67.2-8.3,67.2c-1.9-0.1,27.9,4.2,55.8-1.5c0,0,2.9-61.3-25.8-70.2l-3.9-3.5
		l-10.2,1.8L515.8,198.9z"/>
	<path class="st5" d="M533.6,190.9c19.8-1.9,42.2,23.5,28.5,54.2c-12.3,27.4-75.6,25.1-75.6,25.1v-21.5c0,0,51.1,0.4,51.1-30.6"/>
	<path class="st33" d="M537.5,218.1c2.9,18.8-18.1,25.5-29.4,27.5"/>
	<path class="st33" d="M562.3,245.6c-4.5,12.5-22.6,19-35.1,21.2"/>
	<path class="st33" d="M513.1,205.7c-3.7,11.3-4.4,24.6-4.4,24.6"/>
	<path class="st23" d="M530.8,180.5l1.7,10.3c0,0-3.1,3-6.4,3.5s-3.9-1.8-3.9-1.8l-1.3-9.6L530.8,180.5z"/>
	<path class="st23" d="M518.6,169.7c-0.6,1.7-6.8,12.1,1,18.5c3.1,2.5,9.1-0.7,11.3-3.6c2.6-2,5.3-10.3,3.7-12.4
		C528.4,164,518.6,169.7,518.6,169.7z"/>
	<path class="st31" d="M524.6,177.4c0.1-0.7,0.4-1.2,0.8-1.1c0.4,0,0.6,0.6,0.5,1.3c-0.1,0.7-0.4,1.2-0.8,1.1
		C524.7,178.6,524.5,178.1,524.6,177.4z"/>
	<path class="st31" d="M518.3,176.2c0.1-0.6,0.4-1,0.7-1c0.3,0,0.5,0.5,0.5,1.1c-0.1,0.6-0.4,1-0.7,1
		C518.4,177.3,518.2,176.8,518.3,176.2z"/>
	<path class="st8" d="M518.5,183.1l4.1,0.5c-0.4,1.2-1.5,2-2.7,2C518.6,185.5,518.5,183.1,518.5,183.1z"/>
	<path class="st34" d="M520.7,177.7c-1.2,1.7-1.6,2.7-1.5,3.2c0.1,0.5,2.2,0.5,2.2,0.5"/>
	<path class="st31" d="M521,174.9c-0.1,0-0.2,0-0.3-0.1c-0.6-0.6-1.5-0.9-2.3-0.6c-0.2,0.1-0.4,0-0.5-0.2c-0.1-0.2,0-0.4,0.2-0.5
		l0,0c1.1-0.3,2.3,0,3.1,0.9c0.1,0.2,0.1,0.4,0,0.5C521.2,174.8,521.1,174.9,521,174.9L521,174.9z"/>
	<path class="st31" d="M527.8,176.4c-0.1,0-0.3-0.1-0.3-0.2c-0.6-1.2-2.1-1.6-3.3-1c0,0,0,0-0.1,0c-0.2,0.1-0.4,0-0.5-0.1
		c-0.1-0.2,0-0.4,0.1-0.5l0,0c1.5-0.9,3.4-0.4,4.3,1.1c0,0.1,0.1,0.1,0.1,0.2c0.1,0.2,0,0.4-0.1,0.5
		C528,176.3,527.9,176.4,527.8,176.4z"/>
	<path class="st31" d="M519,172.8c3,0.8,6.1,0.7,9-0.3c0,2.2,0.9,4.2,2.6,5.6c0.5,0.5,1.3,0.2,2,0.3c0.6,0.1,1.5,3.1,1.9,2.7
		c1.2-1.2,2.6-1.6,4-2.5c1.4-0.9,3.1-3.4,2.7-5.3c-0.5-3.1-2.5-6.7-5.4-7.8c-0.6-3-6.1-4.3-7.9-4.4c-5.3-0.3-10.2,2.3-13.8,6
		l0.3,1.2c0.1,0.6,0.4,1.2,0.6,1.7c0.5,0.8,1.2,1.4,1.9,1.8C517.6,172.2,518.3,172.5,519,172.8z"/>
	<path class="st23" d="M530.2,179.1c0.2-1.9,2.8-2,3.6-1c1.1,1.3,0.6,3.9-0.9,5.2c-1.6,1.4-2.9,1.2-3.5-0.1
		C529.4,183.2,530,180.6,530.2,179.1z"/>
	<path class="st34" d="M522.9,189.2c2.6-0.3,5-1.3,6.9-3.1"/>
	<line class="st33" x1="489.9" y1="248.6" x2="489.9" y2="270.3"/>
	<path class="st33" d="M520.3,192.9c0.9,2.3,3.1,3.9,5.6,3.8c6.4,0.2,9.4-5.8,9.4-5.8"/>
	<rect x="143.4" y="418.9" class="st35" width="38.6" height="1.7"/>
	<path class="st31" d="M148.6,405.3l-3.1,0.8c0,0-1.2,4.2-1.7,7.1c-0.3,1.9-0.4,3.9-0.4,5.8H182c0,0-1.7-4.7-11.8-9
		c-2-0.8-3.8-2-5.2-3.7L148.6,405.3z"/>
	<path class="st23" d="M143.3,394l2.1,12c0,0,1.5,1.9,7.7,1.9c4-0.1,8-0.6,11.9-1.7l-0.1-20"/>
	<path class="st36" d="M100,273.5c2.4,8.6,11.4,19.2,11.4,19.2l20.9,54.5l9.9,53.9l30.9,0.4c0,0-6.3-51.9-9.4-67.9
		c-4.5-23.3-17.9-71.7-17.9-71.7"/>
	<rect x="71.1" y="418.9" class="st35" width="38.1" height="1.7"/>
	<path class="st31" d="M78,405.3l-3.1,0.8c-1,2.2-1.9,4.4-2.7,6.6c-0.5,2-0.9,4.1-1,6.2h38.1c0,0-1-3.2-9.6-8.4
		c-2-1.1-3.7-2.6-5.2-4.4L78,405.3z"/>
	<path class="st23" d="M80.1,389.7L74.8,406c0,0,1.5,1.9,7.7,1.9c4-0.1,8-0.6,11.9-1.7l7.2-18.3"/>
	<path class="st37" d="M93.3,276.3c-3.3,10,0.5,19.6,0.5,19.6L88,335.9l-16.9,65.3l33.4,0.5c0,0,14.7-42,21.2-58.3
		c8-20,12.3-79.5,12.3-79.7"/>
	<path class="st38" d="M137.4,280.9c-2.2,20.4-7,46.3-9.3,55.3"/>
	<path class="st38" d="M135.8,293.6c0,0,3.8,0.1,4.4-2.3c0.6-2.3,1.9-11.6,1.9-11.6"/>
	<path class="st38" d="M130.5,324.8l7.4,20.3c0.1,0.4,0.3,0.8,0.3,1.2l9.8,54.6"/>
	<path class="st39" d="M76.6,400.9l17.7-65.1l5.4-38.2c0.2-1.1,0-2.2-0.3-3.2c-1.1-3-3.2-10.2-0.7-15.6"/>
	<path class="st39" d="M97.8,285.5c0,0,7.8-0.5,10.2-1.4c1.9-0.7,5.1-8.3,5.1-8.3"/>
	<line class="st38" x1="140.8" y1="395.1" x2="172" y2="395.1"/>
	<line class="st39" x1="72.7" y1="395.1" x2="106.9" y2="395.1"/>
	<path class="st40" d="M125.1,196c0,0-16.3,0.5-25.1,23.9c-7.3,19.4-12.2,61.1-12.2,61.1H154c0,0-0.5-47-5.7-64.3
		c-5-16.6-13.4-20-13.4-20L125.1,196z"/>
	<path class="st23" d="M186.1,238.6c3.3-1,12.4-5.3,12.9-4.8c0.5,0.5-2.7,2.1-2.2,2.4s5.6-1.8,6-1.2c0.5,0.9-4.8,2.8-4.8,2.8
		s5.9-1.8,6.2-1c0.2,0.6-4.3,2.2-5.9,3c1.9-0.7,5.1-1.4,5.2-0.8c0.2,0.6-2.9,1.8-5.1,2.8c1.5-0.5,4.2-1.3,4.4-0.7
		c0.2,0.6-7,3.9-13.8,6.8"/>
	<path class="st40" d="M112.2,208.9c0,0-0.9,51.6,21.5,61.2c20.3,8.6,58.3-8.9,58.3-8.9l-5-23.6c0,0-29.8,12.5-40.6,7
		c-7.1-3.6-10.6-33.3-10.6-33.3"/>
	<path class="st41" d="M152.2,245.5c-14.5,0-14.7-22.9-15.5-32.9"/>
	<path class="st41" d="M112.4,210.6c0,0-2,31.9,11.1,51.3c6.4,9.5,17.8,12.1,30.2,10.5"/>
	<line class="st41" x1="182.2" y1="239.3" x2="186.9" y2="263.3"/>
	<path class="st41" d="M122.7,196.3c0,0,0.4,6.9,9.2,6.9c2.8,0,5.5-1.2,7.3-3.3"/>
	<path class="st42" d="M143.4,180.4c2,6.2,2.2,11.9-3.1,13.6c-5.2,1.7-12.9,1.4-15.8-7.4c-2.1-6.2,0.5-12.6,5.8-14.3
		C135.4,170.6,141.3,174.2,143.4,180.4z"/>
	<path class="st42" d="M137.1,197.9c0,0-3.3,3.1-7.2,2.1c-4.7-1.3-4.6-4-4.6-4l3.1-11.3l10.6,2.9L137.1,197.9z"/>
	<path class="st42" d="M143,180.7c0,0,3.3,3.5,3.3,4.2c0,0.7-1.9,1.4-1.9,1.4"/>
	<path class="st43" d="M141.4,181.7c0,0.4-0.3,0.7-0.7,0.7c-0.4,0-0.7-0.3-0.7-0.7c0-0.4,0.3-0.7,0.7-0.7
		C141.1,181,141.4,181.4,141.4,181.7C141.4,181.7,141.4,181.7,141.4,181.7z"/>
	<path class="st43" d="M140.5,178.2c-0.8-0.4-1.4,0-2,0.6c-0.3,0.2-0.5,0.5-0.7,0.8c-0.1,0.2-0.2,0.6-0.1,0.8
		c0.2,0.2,0.6-0.3,0.8-0.5c0.6-0.5,1.4-0.8,2.1-1c0,0,0.1,0,0.1,0c0,0,0-0.1,0-0.1C140.9,178.6,140.7,178.4,140.5,178.2z"/>
	<path class="st8" d="M143.9,187.7l-4.9,0.3c0.2,1.6,1.6,2.7,3.2,2.5c0,0,0,0,0,0C143.7,190.4,143.9,187.7,143.9,187.7z"/>
	<path class="st31" d="M129.8,191.7c-1.4,2-4.6,0.7-6.2-0.3c-1.9-1.2-3.1-3.4-4.2-5.4c-0.5-0.8-0.9-1.7-1-2.6
		c-0.2-0.9,0.1-1.9,0.9-2.6c-1.1-0.5-2.1-1.3-3-2.1c-0.9-0.9-1.3-2.1-1.1-3.4c0.3-0.9,0.8-1.7,1.6-2.3c1.9-1.7,4.2-2.9,6.7-3.5
		c-0.7-0.3-1-1.2-0.7-1.9c0-0.1,0.1-0.2,0.1-0.2c0.6-0.7,1.3-1.1,2.2-1.3c5.4-1.5,9.6-1,14.2,2.4c1.8,1.3,4,3.6,3.1,5.7
		c-0.7,1.5-1.2,2.1-2.9,2.5c-1.7,0.4-5.7,0.6-6.3,2.4c-0.6,1.7,0.5,3.8-2.1,4.4c-1.9,0.5-0.9-2.1-3.5-1.4c-0.9,0.2-1.6,2.3-0.7,4.4
		c0.6,1.3,1.8,2.2,3.3,2.4C130.8,189.6,130.5,190.8,129.8,191.7z"/>
	<path class="st34" d="M137.6,195c-0.5-0.1-4.1-0.2-6.2-1.2"/>
</g>
</svg>
